<svg width="180" height="52" viewBox="0 0 180 52" fill="none" xmlns="http://www.w3.org/2000/svg">
<path d="M179 46.0029C179 48.774 176.709 51.0187 173.874 51.0187H6.13243C3.2995 51.0187 1 48.774 1 46.0029V6.00333C1 3.23349 3.2995 0.980957 6.13243 0.980957H173.873C176.709 0.980957 178.999 3.23349 178.999 6.00333L179 46.0029Z" fill="black"/>
<path d="M173.333 1.04162C176.42 1.04162 178.932 3.4905 178.932 6.5V45.5C178.932 48.5095 176.42 50.9584 173.333 50.9584H6.66667C3.58 50.9584 1.06833 48.5095 1.06833 45.5V6.5C1.06833 3.4905 3.58 1.04162 6.66667 1.04162H173.333ZM173.333 2.74817e-06H6.66667C3.00167 2.74817e-06 0 2.92663 0 6.5V45.5C0 49.0734 3.00167 52 6.66667 52H173.333C176.998 52 180 49.0734 180 45.5V6.5C180 2.92663 176.998 2.74817e-06 173.333 2.74817e-06Z" fill="#A6A6A6"/>
<path d="M40.1707 25.7191C40.132 21.5292 43.6894 19.4908 43.852 19.3959C41.8374 16.532 38.7147 16.1407 37.6174 16.1095C34.9947 15.8404 32.4507 17.6396 31.1147 17.6396C29.752 17.6396 27.6947 16.1355 25.4774 16.1797C22.624 16.2226 19.9547 17.8333 18.4907 20.3345C15.4694 25.4344 17.7227 32.9289 20.6174 37.0512C22.0654 39.0701 23.7574 41.3243 25.972 41.245C28.1387 41.1579 28.948 39.8982 31.5627 39.8982C34.1534 39.8982 34.9134 41.245 37.172 41.1943C39.4974 41.1579 40.9614 39.1663 42.3587 37.1292C44.032 34.8152 44.704 32.5363 44.7307 32.4193C44.676 32.4011 40.2147 30.741 40.1707 25.7191Z" fill="white"/>
<path d="M35.904 13.3977C37.0694 11.9768 37.8667 10.0437 37.6454 8.08203C35.9587 8.15483 33.8494 9.21953 32.6347 10.6092C31.56 11.8338 30.6 13.841 30.848 15.7286C32.7427 15.8664 34.688 14.7965 35.904 13.3977Z" fill="white"/>
<path d="M71.5266 40.9552H68.4986L66.84 35.8735H61.0746L59.4946 40.9552H56.5466L62.2586 23.6548H65.7866L71.5266 40.9552ZM66.34 33.7415L64.84 29.224C64.6813 28.7625 64.384 27.6757 63.9453 25.9649H63.892C63.7173 26.7007 63.436 27.7875 63.0493 29.224L61.576 33.7415H66.34Z" fill="white"/>
<path d="M86.2161 34.5647C86.2161 36.6863 85.6281 38.3633 84.4521 39.5944C83.3988 40.6903 82.0908 41.2376 80.5294 41.2376C78.8441 41.2376 77.6334 40.6474 76.8961 39.467H76.8428V46.0385H74.0001V32.5874C74.0001 31.2536 73.9641 29.8847 73.8948 28.4807H76.3948L76.5534 30.458H76.6068C77.5548 28.9682 78.9934 28.2246 80.9241 28.2246C82.4334 28.2246 83.6934 28.8057 84.7014 29.9692C85.7121 31.134 86.2161 32.6654 86.2161 34.5647ZM83.3201 34.6661C83.3201 33.4519 83.0401 32.4509 82.4774 31.6631C81.8628 30.8415 81.0374 30.4307 80.0028 30.4307C79.3014 30.4307 78.6641 30.6595 78.0948 31.1106C77.5241 31.5656 77.1508 32.1597 76.9761 32.8955C76.8881 33.2387 76.8441 33.5195 76.8441 33.7405V35.8205C76.8441 36.7279 77.1294 37.4936 77.7001 38.1189C78.2708 38.7442 79.0121 39.0562 79.9241 39.0562C80.9948 39.0562 81.8281 38.6532 82.4241 37.8498C83.0214 37.0451 83.3201 35.9843 83.3201 34.6661Z" fill="white"/>
<path d="M100.932 34.5647C100.932 36.6863 100.344 38.3633 99.1667 39.5944C98.1147 40.6903 96.8067 41.2376 95.2454 41.2376C93.5601 41.2376 92.3494 40.6474 91.6134 39.467H91.5601V46.0385H88.7174V32.5874C88.7174 31.2536 88.6814 29.8847 88.6121 28.4807H91.1121L91.2707 30.458H91.3241C92.2707 28.9682 93.7094 28.2246 95.6414 28.2246C97.1494 28.2246 98.4094 28.8057 99.4201 29.9692C100.427 31.134 100.932 32.6654 100.932 34.5647ZM98.0361 34.6661C98.0361 33.4519 97.7547 32.4509 97.1921 31.6631C96.5774 30.8415 95.7547 30.4307 94.7187 30.4307C94.0161 30.4307 93.3801 30.6595 92.8094 31.1106C92.2387 31.5656 91.8667 32.1597 91.6921 32.8955C91.6054 33.2387 91.5601 33.5195 91.5601 33.7405V35.8205C91.5601 36.7279 91.8454 37.4936 92.4134 38.1189C92.9841 38.7429 93.7254 39.0562 94.6401 39.0562C95.7107 39.0562 96.5441 38.6532 97.1401 37.8498C97.7374 37.0451 98.0361 35.9843 98.0361 34.6661Z" fill="white"/>
<path d="M117.385 36.1037C117.385 37.5753 116.861 38.7726 115.809 39.6969C114.653 40.707 113.044 41.2114 110.976 41.2114C109.067 41.2114 107.536 40.8526 106.377 40.1337L107.036 37.8236C108.284 38.5594 109.653 38.9286 111.145 38.9286C112.216 38.9286 113.049 38.692 113.648 38.2214C114.244 37.7508 114.541 37.119 114.541 36.3312C114.541 35.6292 114.296 35.0377 113.804 34.558C113.315 34.0783 112.497 33.6324 111.356 33.2203C108.249 32.0906 106.697 30.4357 106.697 28.2595C106.697 26.8373 107.241 25.6712 108.331 24.7638C109.416 23.8551 110.864 23.4014 112.675 23.4014C114.289 23.4014 115.631 23.6757 116.701 24.223L115.991 26.4824C114.991 25.952 113.86 25.6868 112.595 25.6868C111.595 25.6868 110.813 25.9273 110.253 26.4057C109.78 26.8334 109.543 27.3547 109.543 27.9722C109.543 28.656 109.813 29.2215 110.357 29.6661C110.831 30.0769 111.691 30.5215 112.939 31.0012C114.465 31.6005 115.587 32.3012 116.308 33.1046C117.027 33.9054 117.385 34.9077 117.385 36.1037Z" fill="white"/>
<path d="M126.784 30.5604H123.651V36.6171C123.651 38.1576 124.203 38.9272 125.309 38.9272C125.817 38.9272 126.239 38.8843 126.572 38.7985L126.651 40.9032C126.091 41.1073 125.353 41.21 124.44 41.21C123.317 41.21 122.44 40.8759 121.807 40.209C121.176 39.5408 120.859 38.4202 120.859 36.8459V30.5578H118.992V28.4778H120.859V26.1937L123.651 25.3721V28.4778H126.784V30.5604Z" fill="white"/>
<path d="M140.921 34.6151C140.921 36.5326 140.359 38.1069 139.236 39.338C138.059 40.6055 136.496 41.2373 134.548 41.2373C132.671 41.2373 131.176 40.6302 130.061 39.416C128.947 38.2018 128.389 36.6691 128.389 34.8218C128.389 32.8887 128.963 31.3053 130.113 30.0742C131.261 28.8418 132.811 28.2256 134.759 28.2256C136.636 28.2256 138.147 28.8327 139.287 30.0482C140.377 31.2273 140.921 32.7496 140.921 34.6151ZM137.972 34.7048C137.972 33.5543 137.72 32.5676 137.209 31.7447C136.613 30.7489 135.761 30.2523 134.657 30.2523C133.515 30.2523 132.647 30.7502 132.051 31.7447C131.54 32.5689 131.288 33.5712 131.288 34.7568C131.288 35.9073 131.54 36.894 132.051 37.7156C132.665 38.7114 133.524 39.208 134.632 39.208C135.717 39.208 136.569 38.701 137.184 37.6896C137.708 36.8511 137.972 35.854 137.972 34.7048Z" fill="white"/>
<path d="M150.162 30.9182C149.88 30.8675 149.58 30.8415 149.266 30.8415C148.266 30.8415 147.492 31.2094 146.948 31.9465C146.475 32.5965 146.238 33.4181 146.238 34.41V40.9555H143.396L143.423 32.4093C143.423 30.9715 143.387 29.6624 143.316 28.482H145.792L145.896 30.8688H145.975C146.275 30.0485 146.748 29.3881 147.396 28.8928C148.03 28.4469 148.714 28.2246 149.451 28.2246C149.714 28.2246 149.951 28.2428 150.162 28.2753V30.9182Z" fill="white"/>
<path d="M162.875 34.1279C162.875 34.6245 162.841 35.0431 162.771 35.385H154.243C154.276 36.6174 154.688 37.5599 155.48 38.2099C156.199 38.791 157.128 39.0822 158.269 39.0822C159.532 39.0822 160.684 38.8859 161.72 38.492L162.165 40.416C160.955 40.9308 159.525 41.1869 157.876 41.1869C155.892 41.1869 154.335 40.6175 153.201 39.48C152.071 38.3425 151.504 36.815 151.504 34.8988C151.504 33.0177 152.031 31.4512 153.085 30.2019C154.189 28.8681 155.681 28.2012 157.559 28.2012C159.403 28.2012 160.799 28.8681 161.747 30.2019C162.497 31.2614 162.875 32.5718 162.875 34.1279ZM160.164 33.409C160.183 32.5874 159.997 31.8776 159.612 31.2783C159.12 30.5074 158.364 30.1226 157.347 30.1226C156.417 30.1226 155.661 30.4983 155.084 31.2523C154.611 31.8516 154.329 32.5705 154.243 33.4077H160.164V33.409Z" fill="white"/>
<path d="M61.6035 13.9043H60.5898V13.1836H61.5625C61.9922 13.1836 62.3398 13.123 62.6055 13.002C62.8711 12.8809 63.0645 12.7129 63.1855 12.498C63.3066 12.2832 63.3672 12.0352 63.3672 11.7539C63.3672 11.4844 63.3008 11.2383 63.168 11.0156C63.0352 10.7891 62.8301 10.6094 62.5527 10.4766C62.2754 10.3398 61.918 10.2715 61.4805 10.2715C61.1523 10.2715 60.8555 10.334 60.5898 10.459C60.3242 10.5801 60.1133 10.75 59.957 10.9688C59.8008 11.1836 59.7227 11.4316 59.7227 11.7129H58.5918C58.5918 11.3496 58.668 11.0234 58.8203 10.7344C58.9727 10.4414 59.1816 10.1934 59.4473 9.99023C59.7129 9.7832 60.0195 9.625 60.3672 9.51562C60.7188 9.40625 61.0898 9.35156 61.4805 9.35156C61.9375 9.35156 62.3516 9.4043 62.7227 9.50977C63.0938 9.61133 63.4121 9.76367 63.6777 9.9668C63.9434 10.1699 64.1465 10.4219 64.2871 10.7227C64.4277 11.0234 64.498 11.373 64.498 11.7715C64.498 12.0645 64.4297 12.3398 64.293 12.5977C64.1562 12.8555 63.9609 13.082 63.707 13.2773C63.4531 13.4727 63.1484 13.627 62.793 13.7402C62.4375 13.8496 62.041 13.9043 61.6035 13.9043ZM60.5898 13.4062H61.6035C62.084 13.4062 62.5117 13.4551 62.8867 13.5527C63.2617 13.6504 63.5781 13.793 63.8359 13.9805C64.0938 14.168 64.2891 14.4004 64.4219 14.6777C64.5586 14.9512 64.627 15.2656 64.627 15.6211C64.627 16.0195 64.5488 16.373 64.3926 16.6816C64.2402 16.9902 64.0234 17.252 63.7422 17.4668C63.4609 17.6816 63.127 17.8438 62.7402 17.9531C62.3574 18.0625 61.9375 18.1172 61.4805 18.1172C61.1133 18.1172 60.75 18.0703 60.3906 17.9766C60.0352 17.8789 59.7129 17.7305 59.4238 17.5312C59.1348 17.3281 58.9023 17.0703 58.7266 16.7578C58.5547 16.4453 58.4688 16.0703 58.4688 15.6328H59.5996C59.5996 15.918 59.6777 16.1797 59.834 16.418C59.9941 16.6562 60.2148 16.8477 60.4961 16.9922C60.7773 17.1328 61.1055 17.2031 61.4805 17.2031C61.9102 17.2031 62.2734 17.1367 62.5703 17.0039C62.8711 16.8672 63.0996 16.6816 63.2559 16.4473C63.416 16.209 63.4961 15.9414 63.4961 15.6445C63.4961 15.3828 63.4531 15.1562 63.3672 14.9648C63.2852 14.7695 63.1621 14.6094 62.998 14.4844C62.8379 14.3594 62.6367 14.2676 62.3945 14.209C62.1562 14.1465 61.8789 14.1152 61.5625 14.1152H60.5898V13.4062ZM69.6895 16.916V13.6523C69.6895 13.4023 69.6387 13.1855 69.5371 13.002C69.4395 12.8145 69.291 12.6699 69.0918 12.5684C68.8926 12.4668 68.6465 12.416 68.3535 12.416C68.0801 12.416 67.8398 12.4629 67.6328 12.5566C67.4297 12.6504 67.2695 12.7734 67.1523 12.9258C67.0391 13.0781 66.9824 13.2422 66.9824 13.418H65.8984C65.8984 13.1914 65.957 12.9668 66.0742 12.7441C66.1914 12.5215 66.3594 12.3203 66.5781 12.1406C66.8008 11.957 67.0664 11.8125 67.375 11.707C67.6875 11.5977 68.0352 11.543 68.418 11.543C68.8789 11.543 69.2852 11.6211 69.6367 11.7773C69.9922 11.9336 70.2695 12.1699 70.4688 12.4863C70.6719 12.7988 70.7734 13.1914 70.7734 13.6641V16.6172C70.7734 16.8281 70.791 17.0527 70.8262 17.291C70.8652 17.5293 70.9219 17.7344 70.9961 17.9062V18H69.8652C69.8105 17.875 69.7676 17.709 69.7363 17.502C69.7051 17.291 69.6895 17.0957 69.6895 16.916ZM69.877 14.1562L69.8887 14.918H68.793C68.4844 14.918 68.209 14.9434 67.9668 14.9941C67.7246 15.041 67.5215 15.1133 67.3574 15.2109C67.1934 15.3086 67.0684 15.4316 66.9824 15.5801C66.8965 15.7246 66.8535 15.8945 66.8535 16.0898C66.8535 16.2891 66.8984 16.4707 66.9883 16.6348C67.0781 16.7988 67.2129 16.9297 67.3926 17.0273C67.5762 17.1211 67.8008 17.168 68.0664 17.168C68.3984 17.168 68.6914 17.0977 68.9453 16.957C69.1992 16.8164 69.4004 16.6445 69.5488 16.4414C69.7012 16.2383 69.7832 16.041 69.7949 15.8496L70.2578 16.3711C70.2305 16.5352 70.1562 16.7168 70.0352 16.916C69.9141 17.1152 69.752 17.3066 69.5488 17.4902C69.3496 17.6699 69.1113 17.8203 68.834 17.9414C68.5605 18.0586 68.252 18.1172 67.9082 18.1172C67.4785 18.1172 67.1016 18.0332 66.7773 17.8652C66.457 17.6973 66.207 17.4727 66.0273 17.1914C65.8516 16.9062 65.7637 16.5879 65.7637 16.2363C65.7637 15.8965 65.8301 15.5977 65.9629 15.3398C66.0957 15.0781 66.2871 14.8613 66.5371 14.6895C66.7871 14.5137 67.0879 14.3809 67.4395 14.291C67.791 14.2012 68.1836 14.1562 68.6172 14.1562H69.877ZM76.5742 11.6602V12.5566H73.6445V18H72.5605V11.6602H76.5742ZM78.6016 12.8789V20.4375H77.5117V11.6602H78.5078L78.6016 12.8789ZM82.873 14.7773V14.9004C82.873 15.3613 82.8184 15.7891 82.709 16.1836C82.5996 16.5742 82.4395 16.9141 82.2285 17.2031C82.0215 17.4922 81.7656 17.7168 81.4609 17.877C81.1562 18.0371 80.8066 18.1172 80.4121 18.1172C80.0098 18.1172 79.6543 18.0508 79.3457 17.918C79.0371 17.7852 78.7754 17.5918 78.5605 17.3379C78.3457 17.084 78.1738 16.7793 78.0449 16.4238C77.9199 16.0684 77.834 15.668 77.7871 15.2227V14.5664C77.834 14.0977 77.9219 13.6777 78.0508 13.3066C78.1797 12.9355 78.3496 12.6191 78.5605 12.3574C78.7754 12.0918 79.0352 11.8906 79.3398 11.7539C79.6445 11.6133 79.9961 11.543 80.3945 11.543C80.793 11.543 81.1465 11.6211 81.4551 11.7773C81.7637 11.9297 82.0234 12.1484 82.2344 12.4336C82.4453 12.7188 82.6035 13.0605 82.709 13.459C82.8184 13.8535 82.873 14.293 82.873 14.7773ZM81.7832 14.9004V14.7773C81.7832 14.4609 81.75 14.1641 81.6836 13.8867C81.6172 13.6055 81.5137 13.3594 81.373 13.1484C81.2363 12.9336 81.0605 12.7656 80.8457 12.6445C80.6309 12.5195 80.375 12.457 80.0781 12.457C79.8047 12.457 79.5664 12.5039 79.3633 12.5977C79.1641 12.6914 78.9941 12.8184 78.8535 12.9785C78.7129 13.1348 78.5977 13.3145 78.5078 13.5176C78.4219 13.7168 78.3574 13.9238 78.3145 14.1387V15.6562C78.3926 15.9297 78.502 16.1875 78.6426 16.4297C78.7832 16.668 78.9707 16.8613 79.2051 17.0098C79.4395 17.1543 79.7344 17.2266 80.0898 17.2266C80.3828 17.2266 80.6348 17.166 80.8457 17.0449C81.0605 16.9199 81.2363 16.75 81.373 16.5352C81.5137 16.3203 81.6172 16.0742 81.6836 15.7969C81.75 15.5156 81.7832 15.2168 81.7832 14.9004ZM85.9668 17.3438L87.7305 11.6602H88.8906L86.3477 18.9785C86.2891 19.1348 86.2109 19.3027 86.1133 19.4824C86.0195 19.666 85.8984 19.8398 85.75 20.0039C85.6016 20.168 85.4219 20.3008 85.2109 20.4023C85.0039 20.5078 84.7559 20.5605 84.4668 20.5605C84.3809 20.5605 84.2715 20.5488 84.1387 20.5254C84.0059 20.502 83.9121 20.4824 83.8574 20.4668L83.8516 19.5879C83.8828 19.5918 83.9316 19.5957 83.998 19.5996C84.0684 19.6074 84.1172 19.6113 84.1445 19.6113C84.3906 19.6113 84.5996 19.5781 84.7715 19.5117C84.9434 19.4492 85.0879 19.3418 85.2051 19.1895C85.3262 19.041 85.4297 18.8359 85.5156 18.5742L85.9668 17.3438ZM84.6719 11.6602L86.3184 16.582L86.5996 17.7246L85.8203 18.123L83.4883 11.6602H84.6719ZM92.2363 14.9707H91.0703V14.3027H92.1484C92.4492 14.3027 92.6875 14.2656 92.8633 14.1914C93.0391 14.1133 93.1641 14.0059 93.2383 13.8691C93.3125 13.7324 93.3496 13.5723 93.3496 13.3887C93.3496 13.2246 93.3066 13.0703 93.2207 12.9258C93.1387 12.7773 93.0059 12.6582 92.8223 12.5684C92.6387 12.4746 92.3926 12.4277 92.084 12.4277C91.834 12.4277 91.6074 12.4727 91.4043 12.5625C91.2012 12.6484 91.0391 12.7676 90.918 12.9199C90.8008 13.0684 90.7422 13.2363 90.7422 13.4238H89.6582C89.6582 13.0371 89.7676 12.7051 89.9863 12.4277C90.209 12.1465 90.5039 11.9297 90.8711 11.7773C91.2422 11.625 91.6465 11.5488 92.084 11.5488C92.4512 11.5488 92.7793 11.5898 93.0684 11.6719C93.3613 11.75 93.6094 11.8672 93.8125 12.0234C94.0156 12.1758 94.1699 12.3672 94.2754 12.5977C94.3848 12.8242 94.4395 13.0879 94.4395 13.3887C94.4395 13.6035 94.3887 13.8066 94.2871 13.998C94.1855 14.1895 94.0391 14.3594 93.8477 14.5078C93.6562 14.6523 93.4238 14.7656 93.1504 14.8477C92.8809 14.9297 92.5762 14.9707 92.2363 14.9707ZM91.0703 14.5605H92.2363C92.6152 14.5605 92.9492 14.5977 93.2383 14.6719C93.5273 14.7422 93.7695 14.8477 93.9648 14.9883C94.1602 15.1289 94.3066 15.3027 94.4043 15.5098C94.5059 15.7129 94.5566 15.9473 94.5566 16.2129C94.5566 16.5098 94.4961 16.7773 94.375 17.0156C94.2578 17.25 94.0898 17.4492 93.8711 17.6133C93.6523 17.7773 93.3906 17.9023 93.0859 17.9883C92.7852 18.0742 92.4512 18.1172 92.084 18.1172C91.6738 18.1172 91.2754 18.0469 90.8887 17.9062C90.502 17.7656 90.1836 17.5488 89.9336 17.2559C89.6836 16.959 89.5586 16.582 89.5586 16.125H90.6426C90.6426 16.3164 90.7031 16.498 90.8242 16.6699C90.9453 16.8418 91.1133 16.9805 91.3281 17.0859C91.5469 17.1914 91.7988 17.2441 92.084 17.2441C92.3887 17.2441 92.6426 17.1973 92.8457 17.1035C93.0488 17.0098 93.2012 16.8848 93.3027 16.7285C93.4082 16.5723 93.4609 16.4023 93.4609 16.2188C93.4609 15.9805 93.4141 15.7891 93.3203 15.6445C93.2266 15.5 93.082 15.3945 92.8867 15.3281C92.6953 15.2578 92.4492 15.2227 92.1484 15.2227H91.0703V14.5605ZM97.1348 16.2832L100.059 11.6602H101.148V18H100.059V13.377L97.1348 18H96.0566V11.6602H97.1348V16.2832ZM105.473 11.6602V18H104.383V11.6602H105.473ZM107.6 11.6602V12.5391H102.297V11.6602H107.6ZM110.828 18.1172C110.387 18.1172 109.986 18.043 109.627 17.8945C109.271 17.7422 108.965 17.5293 108.707 17.2559C108.453 16.9824 108.258 16.6582 108.121 16.2832C107.984 15.9082 107.916 15.498 107.916 15.0527V14.8066C107.916 14.291 107.992 13.832 108.145 13.4297C108.297 13.0234 108.504 12.6797 108.766 12.3984C109.027 12.1172 109.324 11.9043 109.656 11.7598C109.988 11.6152 110.332 11.543 110.688 11.543C111.141 11.543 111.531 11.6211 111.859 11.7773C112.191 11.9336 112.463 12.1523 112.674 12.4336C112.885 12.7109 113.041 13.0391 113.143 13.418C113.244 13.793 113.295 14.2031 113.295 14.6484V15.1348H108.561V14.25H112.211V14.168C112.195 13.8867 112.137 13.6133 112.035 13.3477C111.938 13.082 111.781 12.8633 111.566 12.6914C111.352 12.5195 111.059 12.4336 110.688 12.4336C110.441 12.4336 110.215 12.4863 110.008 12.5918C109.801 12.6934 109.623 12.8457 109.475 13.0488C109.326 13.252 109.211 13.5 109.129 13.793C109.047 14.0859 109.006 14.4238 109.006 14.8066V15.0527C109.006 15.3535 109.047 15.6367 109.129 15.9023C109.215 16.1641 109.338 16.3945 109.498 16.5938C109.662 16.793 109.859 16.9492 110.09 17.0625C110.324 17.1758 110.59 17.2324 110.887 17.2324C111.27 17.2324 111.594 17.1543 111.859 16.998C112.125 16.8418 112.357 16.6328 112.557 16.3711L113.213 16.8926C113.076 17.0996 112.902 17.2969 112.691 17.4844C112.48 17.6719 112.221 17.8242 111.912 17.9414C111.607 18.0586 111.246 18.1172 110.828 18.1172ZM120.514 15.2109H118.434L118.422 14.3438H120.121C120.457 14.3438 120.736 14.3105 120.959 14.2441C121.186 14.1777 121.355 14.0781 121.469 13.9453C121.582 13.8125 121.639 13.6484 121.639 13.4531C121.639 13.3008 121.605 13.168 121.539 13.0547C121.477 12.9375 121.381 12.8418 121.252 12.7676C121.123 12.6895 120.963 12.6328 120.771 12.5977C120.584 12.5586 120.363 12.5391 120.109 12.5391H118.721V18H117.637V11.6602H120.109C120.512 11.6602 120.873 11.6953 121.193 11.7656C121.518 11.8359 121.793 11.9434 122.02 12.0879C122.25 12.2285 122.426 12.4082 122.547 12.627C122.668 12.8457 122.729 13.1035 122.729 13.4004C122.729 13.5918 122.689 13.7734 122.611 13.9453C122.533 14.1172 122.418 14.2695 122.266 14.4023C122.113 14.5352 121.926 14.6445 121.703 14.7305C121.48 14.8125 121.225 14.8652 120.936 14.8887L120.514 15.2109ZM120.514 18H118.041L118.58 17.1211H120.514C120.814 17.1211 121.064 17.084 121.264 17.0098C121.463 16.9316 121.611 16.8223 121.709 16.6816C121.811 16.5371 121.861 16.3652 121.861 16.166C121.861 15.9668 121.811 15.7969 121.709 15.6562C121.611 15.5117 121.463 15.4023 121.264 15.3281C121.064 15.25 120.814 15.2109 120.514 15.2109H118.867L118.879 14.3438H120.936L121.328 14.6719C121.676 14.6992 121.971 14.7852 122.213 14.9297C122.455 15.0742 122.639 15.2578 122.764 15.4805C122.889 15.6992 122.951 15.9375 122.951 16.1953C122.951 16.4922 122.895 16.7539 122.781 16.9805C122.672 17.207 122.512 17.3965 122.301 17.5488C122.09 17.6973 121.834 17.8105 121.533 17.8887C121.232 17.9629 120.893 18 120.514 18Z" fill="white"/>
</svg>
