<svg width="100" height="100" viewBox="0 0 100 100" fill="none" xmlns="http://www.w3.org/2000/svg">
<rect width="100" height="100" rx="50" fill="white"/>
<path opacity="0.2" fill-rule="evenodd" clip-rule="evenodd" d="M84.9712 84.7356C75.955 93.5601 63.6129 99 50.0002 99C35.8934 99 23.151 93.158 14.0605 83.7612C14.1193 82.5468 14.2407 82.0648 14.4984 81.0998C15.4382 77.5814 17.204 74.4427 19.6549 71.9338C22.7459 68.7699 27.0661 66.6207 31.3285 66.1265C33.4262 65.8831 65.2814 65.875 67.4243 66.1173C75.6642 67.0484 82.3048 72.8744 84.5017 81.0998C84.819 82.2878 84.9297 82.7439 84.9712 84.7356ZM32.5716 34.4429C34.4994 28.2434 39.4731 23.7158 45.998 22.2205C46.8342 22.0288 47.9996 21.9685 49.9636 22.0149C53.224 22.0918 54.9981 22.5315 57.6472 23.9192C68.3462 29.5234 70.5522 44.0053 62.0296 52.6879C59.7119 55.0492 56.8538 56.6489 53.4509 57.4889C51.0651 58.0779 47.6414 58.0437 45.2333 57.4066C41.9624 56.5416 39.3199 55.034 37.0153 52.7184C32.235 47.9155 30.5443 40.9622 32.5716 34.4429Z" fill="black"/>
</svg>
