<svg width="53" height="54" viewBox="0 0 53 54" fill="none" xmlns="http://www.w3.org/2000/svg">
<path d="M34.6667 51H18.3333V28.1321C18.3333 27.6989 18.5054 27.2834 18.8117 26.9771C19.118 26.6708 19.5335 26.4987 19.9667 26.4987H33.0333C33.4665 26.4987 33.882 26.6708 34.1883 26.9771C34.4946 27.2834 34.6667 27.6989 34.6667 28.1321V51V51ZM49.3667 51H34.6667V43.1051C34.6667 42.6719 34.8387 42.2565 35.1451 41.9501C35.4514 41.6438 35.8668 41.4717 36.3 41.4717H49.3667C49.7999 41.4717 50.2153 41.6438 50.5216 41.9501C50.8279 42.2565 51 42.6719 51 43.1051V49.3666C51 49.7998 50.8279 50.2153 50.5216 50.5216C50.2153 50.8279 49.7999 51 49.3667 51V51ZM18.3333 51V37.6604C18.3333 37.2272 18.1613 36.8117 17.8549 36.5054C17.5486 36.1991 17.1332 36.027 16.7 36.027H3.63333C3.20015 36.027 2.7847 36.1991 2.47839 36.5054C2.17208 36.8117 2 37.2272 2 37.6604V49.3666C2 49.7998 2.17208 50.2153 2.47839 50.5216C2.7847 50.8279 3.20015 51 3.63333 51H18.3333V51ZM23.2497 7.74975L25.7242 2.50375C25.791 2.35378 25.8998 2.22638 26.0375 2.13698C26.1752 2.04758 26.3358 2 26.5 2C26.6642 2 26.8248 2.04758 26.9625 2.13698C27.1002 2.22638 27.209 2.35378 27.2758 2.50375L29.7531 7.74975L35.2846 8.5964C35.9951 8.7053 36.2782 9.62001 35.7637 10.1427L31.7621 14.2263L32.7067 19.9922C32.8264 20.7327 32.086 21.299 31.449 20.9478L26.5 18.2254L21.551 20.9478C20.9167 21.2963 20.1736 20.7327 20.2933 19.9922L21.2379 14.2263L17.2363 10.1427C16.7191 9.62001 17.0049 8.7053 17.7127 8.5964L23.2497 7.75247V7.74975Z" stroke="url(#paint0_linear_1017_285)" stroke-width="3" stroke-linecap="round" stroke-linejoin="round"/>
<defs>
<linearGradient id="paint0_linear_1017_285" x1="2.00043" y1="26.5001" x2="51.0001" y2="26.5001" gradientUnits="userSpaceOnUse">
<stop offset="0.0606" stop-color="#D7B357"/>
<stop offset="0.371" stop-color="#DBBD6D"/>
<stop offset="1" stop-color="#E4D6A0"/>
</linearGradient>
</defs>
</svg>
