<svg width="65" height="49" viewBox="0 0 65 49" fill="none" xmlns="http://www.w3.org/2000/svg">
<path d="M3.49414 47V44.353C3.49414 39.4386 5.43845 34.7256 8.89935 31.2506C12.3602 27.7757 17.0542 25.8235 21.9487 25.8235V25.8235C26.8431 25.8235 31.5371 27.7757 34.998 31.2506C38.4589 34.7256 40.4032 39.4386 40.4032 44.353V47" stroke="url(#paint0_linear_1017_264)" stroke-width="4" stroke-linecap="round"/>
<path d="M35.1304 31.1177C35.1304 27.6074 36.5192 24.241 38.9912 21.7589C41.4633 19.2768 44.8162 17.8823 48.3122 17.8823V17.8823C50.0432 17.8823 51.7574 18.2247 53.3566 18.8898C54.9559 19.5549 56.4091 20.5299 57.6331 21.7589C58.8572 22.9879 59.8281 24.4469 60.4906 26.0527C61.153 27.6585 61.494 29.3796 61.494 31.1177V32.4412" stroke="url(#paint1_linear_1017_264)" stroke-width="4" stroke-linecap="round"/>
<path d="M21.9487 25.8236C24.7455 25.8236 27.4278 24.7081 29.4054 22.7224C31.3831 20.7367 32.4941 18.0435 32.4941 15.2353C32.4941 12.4272 31.3831 9.73399 29.4054 7.7483C27.4278 5.76262 24.7455 4.64707 21.9487 4.64707C19.1518 4.64707 16.4695 5.76262 14.4919 7.7483C12.5142 9.73399 11.4032 12.4272 11.4032 15.2353C11.4032 18.0435 12.5142 20.7367 14.4919 22.7224C16.4695 24.7081 19.1518 25.8236 21.9487 25.8236V25.8236ZM48.3123 17.8824C50.4099 17.8824 52.4216 17.0458 53.9049 15.5565C55.3881 14.0672 56.2214 12.0473 56.2214 9.94121C56.2214 7.83507 55.3881 5.81519 53.9049 4.32593C52.4216 2.83666 50.4099 2 48.3123 2C46.2147 2 44.203 2.83666 42.7197 4.32593C41.2365 5.81519 40.4032 7.83507 40.4032 9.94121C40.4032 12.0473 41.2365 14.0672 42.7197 15.5565C44.203 17.0458 46.2147 17.8824 48.3123 17.8824Z" stroke="url(#paint2_linear_1017_264)" stroke-width="4" stroke-linecap="round" stroke-linejoin="round"/>
<defs>
<linearGradient id="paint0_linear_1017_264" x1="3.49446" y1="36.4118" x2="40.4033" y2="36.4118" gradientUnits="userSpaceOnUse">
<stop offset="0.0606" stop-color="#D7B357"/>
<stop offset="0.371" stop-color="#DBBD6D"/>
<stop offset="1" stop-color="#E4D6A0"/>
</linearGradient>
<linearGradient id="paint1_linear_1017_264" x1="35.1306" y1="25.1618" x2="61.494" y2="25.1618" gradientUnits="userSpaceOnUse">
<stop offset="0.0606" stop-color="#D7B357"/>
<stop offset="0.371" stop-color="#DBBD6D"/>
<stop offset="1" stop-color="#E4D6A0"/>
</linearGradient>
<linearGradient id="paint2_linear_1017_264" x1="11.4036" y1="13.9118" x2="56.2214" y2="13.9118" gradientUnits="userSpaceOnUse">
<stop offset="0.0606" stop-color="#D7B357"/>
<stop offset="0.371" stop-color="#DBBD6D"/>
<stop offset="1" stop-color="#E4D6A0"/>
</linearGradient>
</defs>
</svg>
