<svg width="180" height="52" viewBox="0 0 180 52" fill="none" xmlns="http://www.w3.org/2000/svg">
<path d="M173.095 52H6.6575C2.99754 52 0 49.0734 0 45.5V6.5C0 2.92663 2.99754 2.74817e-06 6.6575 2.74817e-06H173.095C176.755 2.74817e-06 179.753 2.92663 179.753 6.5V45.5C179.753 49.0734 176.755 52 173.095 52Z" fill="black"/>
<path d="M173.095 1.04162C176.177 1.04162 178.686 3.4905 178.686 6.5V45.5C178.686 48.5095 176.177 50.9584 173.095 50.9584H6.6575C3.57508 50.9584 1.06686 48.5095 1.06686 45.5V6.5C1.06686 3.4905 3.57508 1.04162 6.6575 1.04162H173.095ZM173.095 2.74817e-06H6.6575C2.99754 2.74817e-06 0 2.92663 0 6.5V45.5C0 49.0734 2.99754 52 6.6575 52H173.095C176.755 52 179.753 49.0734 179.753 45.5V6.5C179.753 2.92663 176.755 2.74817e-06 173.095 2.74817e-06Z" fill="#A6A6A6"/>
<path d="M90.7218 28.2783C87.5944 28.2783 85.0396 30.602 85.0396 33.8082C85.0396 36.9883 87.5944 39.3364 90.7218 39.3364C93.8558 39.3364 96.4106 36.9883 96.4106 33.8082C96.4106 30.602 93.8558 28.2783 90.7218 28.2783ZM90.7218 37.1589C89.0058 37.1589 87.5295 35.776 87.5295 33.8082C87.5295 31.8143 89.0058 30.4558 90.7218 30.4558C92.4377 30.4558 93.9207 31.8143 93.9207 33.8082C93.9207 35.776 92.4377 37.1589 90.7218 37.1589ZM78.3238 28.2783C75.1898 28.2783 72.6417 30.602 72.6417 33.8082C72.6417 36.9883 75.1898 39.3364 78.3238 39.3364C81.4562 39.3364 84.006 36.9883 84.006 33.8082C84.006 30.602 81.4562 28.2783 78.3238 28.2783ZM78.3238 37.1589C76.6062 37.1589 75.1249 35.776 75.1249 33.8082C75.1249 31.8143 76.6062 30.4558 78.3238 30.4558C80.0398 30.4558 81.5161 31.8143 81.5161 33.8082C81.5161 35.776 80.0398 37.1589 78.3238 37.1589ZM63.5708 29.9732V32.3229H69.3179C69.1498 33.6359 68.7004 34.6012 68.0114 35.2739C67.1725 36.0864 65.866 36.9883 63.5708 36.9883C60.034 36.9883 57.2645 34.2014 57.2645 30.7483C57.2645 27.2952 60.034 24.5083 63.5708 24.5083C65.4832 24.5083 66.8746 25.2379 67.9015 26.1837L69.5975 24.5278C68.1612 23.1888 66.2505 22.1602 63.5708 22.1602C58.7208 22.1602 54.6448 26.013 54.6448 30.7483C54.6448 35.4835 58.7208 39.3364 63.5708 39.3364C66.1922 39.3364 68.1612 38.4979 69.709 36.9249C71.2952 35.3763 71.7895 33.1988 71.7895 31.4405C71.7895 30.8945 71.7429 30.3924 71.6597 29.9732H63.5708ZM123.898 31.7948C123.43 30.5582 121.987 28.2783 119.048 28.2783C116.135 28.2783 113.71 30.5192 113.71 33.8082C113.71 36.9054 116.11 39.3364 119.327 39.3364C121.929 39.3364 123.43 37.7878 124.048 36.8859L122.117 35.6298C121.473 36.5495 120.596 37.1589 119.327 37.1589C118.067 37.1589 117.164 36.595 116.584 35.4835L124.159 32.4237L123.898 31.7948ZM116.175 33.6359C116.11 31.5039 117.871 30.4119 119.133 30.4119C120.121 30.4119 120.96 30.8945 121.24 31.5852L116.175 33.6359ZM110.019 39H112.508V22.75H110.019V39ZM105.941 29.51H105.858C105.298 28.8633 104.232 28.2783 102.88 28.2783C100.044 28.2783 97.4508 30.7093 97.4508 33.826C97.4508 36.9249 100.044 39.3364 102.88 39.3364C104.232 39.3364 105.298 38.7465 105.858 38.0803H105.941V38.8733C105.941 40.9874 104.784 42.1233 102.918 42.1233C101.397 42.1233 100.453 41.0508 100.064 40.1489L97.8986 41.0313C98.5227 42.497 100.175 44.3008 102.918 44.3008C105.838 44.3008 108.301 42.6238 108.301 38.5434V28.6147H105.941V29.51ZM103.093 37.1589C101.377 37.1589 99.9407 35.7565 99.9407 33.826C99.9407 31.8777 101.377 30.4558 103.093 30.4558C104.784 30.4558 106.117 31.8777 106.117 33.826C106.117 35.7565 104.784 37.1589 103.093 37.1589ZM135.555 22.75H129.6V39H132.083V32.8429H135.555C138.313 32.8429 141.018 30.8945 141.018 27.7957C141.018 24.6984 138.306 22.75 135.555 22.75ZM135.62 30.5825H132.083V25.0104H135.62C137.474 25.0104 138.533 26.5135 138.533 27.7957C138.533 29.0534 137.474 30.5825 135.62 30.5825ZM150.97 28.2474C149.176 28.2474 147.311 29.0209 146.543 30.7353L148.747 31.6372C149.221 30.7353 150.093 30.4428 151.015 30.4428C152.304 30.4428 153.61 31.1984 153.63 32.5325V32.7032C153.181 32.4497 152.219 32.0743 151.035 32.0743C148.662 32.0743 146.244 33.3499 146.244 35.7305C146.244 37.908 148.188 39.3104 150.373 39.3104C152.044 39.3104 152.966 38.5743 153.545 37.7179H153.63V38.974H156.029V32.7405C156.029 29.8594 153.825 28.2474 150.97 28.2474ZM150.671 37.1524C149.859 37.1524 148.727 36.7592 148.727 35.776C148.727 34.5183 150.138 34.0357 151.36 34.0357C152.453 34.0357 152.966 34.2713 153.63 34.5817C153.435 36.0864 152.109 37.1524 150.671 37.1524ZM164.766 28.6033L161.912 35.6477H161.827L158.876 28.6033H156.198L160.632 38.4475L158.102 43.9254H160.697L167.529 28.6033H164.766ZM142.382 39H144.872V22.75H142.382V39Z" fill="white"/>
<path d="M13.8942 9.80044C13.5031 10.2002 13.2767 10.8226 13.2767 11.6286V40.3781C13.2767 41.1841 13.5031 41.8064 13.8942 42.2062L13.9908 42.2939L30.4914 26.1902V25.8099L13.9908 9.7062L13.8942 9.80044Z" fill="url(#paint0_linear_303_109)"/>
<path d="M35.9854 31.5605L30.4913 26.1899V25.8097L35.9921 20.439L36.1153 20.5089L42.6296 24.1278C44.4887 25.1548 44.4887 26.8448 42.6296 27.8783L36.1153 31.4907L35.9854 31.5605Z" fill="url(#paint1_linear_303_109)"/>
<path d="M36.1153 31.4907L30.4914 25.9998L13.8942 42.206C14.5117 42.8397 15.5187 42.9161 16.6637 42.2823L36.1153 31.4907Z" fill="url(#paint2_linear_303_109)"/>
<path d="M36.1153 20.5091L16.6637 9.71751C15.5187 9.09025 14.5117 9.16663 13.8942 9.80038L30.4914 26L36.1153 20.5091Z" fill="url(#paint3_linear_303_109)"/>
<path d="M62.6055 15.834V17H56.3184V15.834H62.6055ZM56.6816 15.834V19.0977H55.2754L55.2227 15.834H56.6816ZM63.7422 15.834L63.6543 19.0918H62.2715V15.834H63.7422ZM61.5742 8.46875V9.64062H57.6367V8.46875H61.5742ZM62.6992 8.46875V17H61.2344V8.46875H62.6992ZM57.3438 8.46875H58.8145L58.6094 11.9258C58.5781 12.4727 58.5215 12.9648 58.4395 13.4023C58.3574 13.8398 58.2578 14.2324 58.1406 14.5801C58.0273 14.9238 57.8984 15.2285 57.7539 15.4941C57.6094 15.7559 57.4551 15.9824 57.291 16.1738C57.127 16.3652 56.959 16.5293 56.7871 16.666C56.6191 16.7988 56.4531 16.9102 56.2891 17H55.5039V15.834H55.8848C55.9902 15.7363 56.1074 15.5957 56.2363 15.4121C56.3652 15.2246 56.4902 14.9805 56.6113 14.6797C56.7363 14.375 56.8457 13.998 56.9395 13.5488C57.0332 13.0996 57.0977 12.5586 57.1328 11.9258L57.3438 8.46875ZM71.5176 12.5V12.9688C71.5176 13.6133 71.4336 14.1914 71.2656 14.7031C71.0977 15.2148 70.8574 15.6504 70.5449 16.0098C70.2363 16.3691 69.8652 16.6445 69.4316 16.8359C68.998 17.0234 68.5176 17.1172 67.9902 17.1172C67.4668 17.1172 66.9883 17.0234 66.5547 16.8359C66.125 16.6445 65.752 16.3691 65.4355 16.0098C65.1191 15.6504 64.873 15.2148 64.6973 14.7031C64.5254 14.1914 64.4395 13.6133 64.4395 12.9688V12.5C64.4395 11.8555 64.5254 11.2793 64.6973 10.7715C64.8691 10.2598 65.1113 9.82422 65.4238 9.46484C65.7402 9.10156 66.1133 8.82617 66.543 8.63867C66.9766 8.44727 67.4551 8.35156 67.9785 8.35156C68.5059 8.35156 68.9863 8.44727 69.4199 8.63867C69.8535 8.82617 70.2266 9.10156 70.5391 9.46484C70.8516 9.82422 71.0918 10.2598 71.2598 10.7715C71.4316 11.2793 71.5176 11.8555 71.5176 12.5ZM70.0469 12.9688V12.4883C70.0469 12.0117 70 11.5918 69.9062 11.2285C69.8164 10.8613 69.6816 10.5547 69.502 10.3086C69.3262 10.0586 69.1094 9.87109 68.8516 9.74609C68.5938 9.61719 68.3027 9.55273 67.9785 9.55273C67.6543 9.55273 67.3652 9.61719 67.1113 9.74609C66.8574 9.87109 66.6406 10.0586 66.4609 10.3086C66.2852 10.5547 66.1504 10.8613 66.0566 11.2285C65.9629 11.5918 65.916 12.0117 65.916 12.4883V12.9688C65.916 13.4453 65.9629 13.8672 66.0566 14.2344C66.1504 14.6016 66.2871 14.9121 66.4668 15.166C66.6504 15.416 66.8691 15.6055 67.123 15.7344C67.377 15.8594 67.666 15.9219 67.9902 15.9219C68.3184 15.9219 68.6094 15.8594 68.8633 15.7344C69.1172 15.6055 69.332 15.416 69.5078 15.166C69.6836 14.9121 69.8164 14.6016 69.9062 14.2344C70 13.8672 70.0469 13.4453 70.0469 12.9688ZM78.0273 14.2227H79.4922C79.4453 14.7812 79.2891 15.2793 79.0234 15.7168C78.7578 16.1504 78.3848 16.4922 77.9043 16.7422C77.4238 16.9922 76.8398 17.1172 76.1523 17.1172C75.625 17.1172 75.1504 17.0234 74.7285 16.8359C74.3066 16.6445 73.9453 16.375 73.6445 16.0273C73.3438 15.6758 73.1133 15.252 72.9531 14.7559C72.7969 14.2598 72.7188 13.7051 72.7188 13.0918V12.3828C72.7188 11.7695 72.7988 11.2148 72.959 10.7188C73.123 10.2227 73.3574 9.79883 73.6621 9.44727C73.9668 9.0918 74.332 8.82031 74.7578 8.63281C75.1875 8.44531 75.6699 8.35156 76.2051 8.35156C76.8848 8.35156 77.459 8.47656 77.9277 8.72656C78.3965 8.97656 78.7598 9.32227 79.0176 9.76367C79.2793 10.2051 79.4395 10.7109 79.498 11.2812H78.0332C77.9941 10.9141 77.9082 10.5996 77.7754 10.3379C77.6465 10.0762 77.4551 9.87695 77.2012 9.74023C76.9473 9.59961 76.6152 9.5293 76.2051 9.5293C75.8691 9.5293 75.5762 9.5918 75.3262 9.7168C75.0762 9.8418 74.8672 10.0254 74.6992 10.2676C74.5312 10.5098 74.4043 10.8086 74.3184 11.1641C74.2363 11.5156 74.1953 11.918 74.1953 12.3711V13.0918C74.1953 13.5215 74.2324 13.9121 74.3066 14.2637C74.3848 14.6113 74.502 14.9102 74.6582 15.1602C74.8184 15.4102 75.0215 15.6035 75.2676 15.7402C75.5137 15.877 75.8086 15.9453 76.1523 15.9453C76.5703 15.9453 76.9082 15.8789 77.166 15.7461C77.4277 15.6133 77.625 15.4199 77.7578 15.166C77.8945 14.9082 77.9844 14.5938 78.0273 14.2227ZM84.1621 8.46875V17H82.7031V8.46875H84.1621ZM86.8398 8.46875V9.64062H80.0488V8.46875H86.8398ZM90.625 14.0293L92.793 8.46875H94.416L91.4512 15.4531C91.3574 15.668 91.25 15.877 91.1289 16.0801C91.0117 16.2793 90.8691 16.457 90.7012 16.6133C90.5332 16.7695 90.3301 16.8945 90.0918 16.9883C89.8535 17.0781 89.5645 17.123 89.2246 17.123C89.1348 17.123 89.0254 17.1191 88.8965 17.1113C88.7715 17.1035 88.6797 17.0957 88.6211 17.0879L88.6328 15.9336C88.6797 15.9414 88.7578 15.9473 88.8672 15.9512C88.9805 15.9551 89.0625 15.957 89.1133 15.957C89.3398 15.957 89.5195 15.9199 89.6523 15.8457C89.7852 15.7676 89.8906 15.6641 89.9688 15.5352C90.0508 15.4023 90.123 15.2578 90.1855 15.1016L90.625 14.0293ZM88.9961 8.46875L91.1406 13.1914L91.5625 14.7266L90.4199 14.7676L87.3906 8.46875H88.9961ZM102.285 8.46875V17H100.82V9.64062H97.0293V17H95.5645V8.46875H102.285ZM109.691 12.0312V13.1973H105.162V12.0312H109.691ZM105.525 8.46875V17H104.055V8.46875H105.525ZM110.822 8.46875V17H109.357V8.46875H110.822ZM119.377 12.5V12.9688C119.377 13.6133 119.293 14.1914 119.125 14.7031C118.957 15.2148 118.717 15.6504 118.404 16.0098C118.096 16.3691 117.725 16.6445 117.291 16.8359C116.857 17.0234 116.377 17.1172 115.85 17.1172C115.326 17.1172 114.848 17.0234 114.414 16.8359C113.984 16.6445 113.611 16.3691 113.295 16.0098C112.979 15.6504 112.732 15.2148 112.557 14.7031C112.385 14.1914 112.299 13.6133 112.299 12.9688V12.5C112.299 11.8555 112.385 11.2793 112.557 10.7715C112.729 10.2598 112.971 9.82422 113.283 9.46484C113.6 9.10156 113.973 8.82617 114.402 8.63867C114.836 8.44727 115.314 8.35156 115.838 8.35156C116.365 8.35156 116.846 8.44727 117.279 8.63867C117.713 8.82617 118.086 9.10156 118.398 9.46484C118.711 9.82422 118.951 10.2598 119.119 10.7715C119.291 11.2793 119.377 11.8555 119.377 12.5ZM117.906 12.9688V12.4883C117.906 12.0117 117.859 11.5918 117.766 11.2285C117.676 10.8613 117.541 10.5547 117.361 10.3086C117.186 10.0586 116.969 9.87109 116.711 9.74609C116.453 9.61719 116.162 9.55273 115.838 9.55273C115.514 9.55273 115.225 9.61719 114.971 9.74609C114.717 9.87109 114.5 10.0586 114.32 10.3086C114.145 10.5547 114.01 10.8613 113.916 11.2285C113.822 11.5918 113.775 12.0117 113.775 12.4883V12.9688C113.775 13.4453 113.822 13.8672 113.916 14.2344C114.01 14.6016 114.146 14.9121 114.326 15.166C114.51 15.416 114.729 15.6055 114.982 15.7344C115.236 15.8594 115.525 15.9219 115.85 15.9219C116.178 15.9219 116.469 15.8594 116.723 15.7344C116.977 15.6055 117.191 15.416 117.367 15.166C117.543 14.9121 117.676 14.6016 117.766 14.2344C117.859 13.8672 117.906 13.4453 117.906 12.9688ZM127.035 13.1445H124.861L124.85 12.0723H126.748C127.068 12.0723 127.34 12.0254 127.562 11.9316C127.789 11.834 127.961 11.6953 128.078 11.5156C128.195 11.332 128.254 11.1113 128.254 10.8535C128.254 10.5684 128.199 10.3359 128.09 10.1562C127.98 9.97656 127.812 9.8457 127.586 9.76367C127.363 9.68164 127.078 9.64062 126.73 9.64062H125.307V17H123.836V8.46875H126.73C127.199 8.46875 127.617 8.51367 127.984 8.60352C128.355 8.69336 128.67 8.83398 128.928 9.02539C129.189 9.21289 129.387 9.45117 129.52 9.74023C129.656 10.0293 129.725 10.373 129.725 10.7715C129.725 11.123 129.641 11.4453 129.473 11.7383C129.305 12.0273 129.057 12.2637 128.729 12.4473C128.4 12.6309 127.992 12.7402 127.504 12.7754L127.035 13.1445ZM126.971 17H124.398L125.061 15.834H126.971C127.303 15.834 127.58 15.7793 127.803 15.6699C128.025 15.5566 128.191 15.4023 128.301 15.207C128.414 15.0078 128.471 14.7754 128.471 14.5098C128.471 14.2324 128.422 13.9922 128.324 13.7891C128.227 13.582 128.072 13.4238 127.861 13.3145C127.65 13.2012 127.375 13.1445 127.035 13.1445H125.383L125.395 12.0723H127.545L127.879 12.4766C128.348 12.4922 128.732 12.5957 129.033 12.7871C129.338 12.9785 129.564 13.2266 129.713 13.5312C129.861 13.8359 129.936 14.1641 129.936 14.5156C129.936 15.0586 129.816 15.5137 129.578 15.8809C129.344 16.248 129.006 16.5273 128.564 16.7188C128.123 16.9062 127.592 17 126.971 17Z" fill="white"/>
<defs>
<linearGradient id="paint0_linear_303_109" x1="29.0263" y1="40.6775" x2="7.21544" y2="18.3381" gradientUnits="userSpaceOnUse">
<stop stop-color="#00A0FF"/>
<stop offset="0.0066" stop-color="#00A1FF"/>
<stop offset="0.2601" stop-color="#00BEFF"/>
<stop offset="0.5122" stop-color="#00D2FF"/>
<stop offset="0.7604" stop-color="#00DFFF"/>
<stop offset="1" stop-color="#00E3FF"/>
</linearGradient>
<linearGradient id="paint1_linear_303_109" x1="45.0505" y1="25.998" x2="12.8323" y2="25.998" gradientUnits="userSpaceOnUse">
<stop stop-color="#FFE000"/>
<stop offset="0.4087" stop-color="#FFBD00"/>
<stop offset="0.7754" stop-color="#FFA500"/>
<stop offset="1" stop-color="#FF9C00"/>
</linearGradient>
<linearGradient id="paint2_linear_303_109" x1="33.0572" y1="23.0149" x2="3.47987" y2="-7.27908" gradientUnits="userSpaceOnUse">
<stop stop-color="#FF3A44"/>
<stop offset="1" stop-color="#C31162"/>
</linearGradient>
<linearGradient id="paint3_linear_303_109" x1="9.71638" y1="51.7709" x2="22.924" y2="38.2434" gradientUnits="userSpaceOnUse">
<stop stop-color="#32A071"/>
<stop offset="0.0685" stop-color="#2DA771"/>
<stop offset="0.4762" stop-color="#15CF74"/>
<stop offset="0.8009" stop-color="#06E775"/>
<stop offset="1" stop-color="#00F076"/>
</linearGradient>
</defs>
</svg>
