<svg width="132" height="81" viewBox="0 0 132 81" fill="none" xmlns="http://www.w3.org/2000/svg">
  <g clip-path="url(#clip0_303_295)" filter="url(#filter0_d_303_295)">
    <path d="M55.8422 21.125C55.7761 21.0583 55.5613 21.1333 55.4622 21.1333C55.2309 21.1417 55.0161 20.95 54.7021 20.9C53.9586 20.7833 53.595 21.2583 53.4629 21.3167C53.405 21.3417 53.2728 21.325 53.2067 21.325C53.1076 21.325 52.835 21.275 52.835 21.4667C52.8267 22.1583 52.2153 22.475 52.1079 22.375C52.0584 22.3333 51.827 23.1083 51.761 23.2667C51.1909 24.6083 50.6869 25.2833 50.6869 25.4583C50.6869 25.4583 50.1664 26.9333 50.2243 26.9917C50.2821 27.05 49.8112 27.7083 49.2824 29.05C49.2494 29.1417 49.2081 29.3417 49.1668 29.4333C48.828 30.1 48.2497 31.1083 47.754 32.6417C47.754 32.725 47.6053 33.025 47.6962 33.1917C47.1344 34.6417 46.8948 35.075 46.8287 35.2C46.7957 35.2583 46.9444 35.3833 46.9609 35.45C46.9692 35.4833 46.9609 35.55 46.9609 35.5833C46.9692 35.8167 46.8535 36.05 46.7296 36.35C46.6883 36.4417 46.6304 36.6333 46.6222 36.7333C46.6139 36.825 46.5974 37.025 46.6304 37.1083C46.6717 37.225 46.7544 37.3083 46.6469 37.6167C46.5891 37.7667 46.5643 38.0917 46.5395 38.2583C46.4817 38.6083 46.3826 39.3083 46.333 39.6583C46.1099 41.125 45.829 42.0333 45.7795 42.4583C45.7547 42.6833 45.7712 42.9083 45.6803 43.35C45.5399 44 45.5564 45 45.5068 46.0167C45.5151 46.275 45.5151 46.1833 45.5151 46.275C45.5151 46.3417 45.5234 46.525 45.5234 46.525C45.5234 46.525 45.5316 46.8167 45.5316 46.9083L45.5647 48.175C45.5729 48.35 45.7629 48.4917 45.7051 48.55C45.3746 48.9 46.1182 49.9333 46.1182 49.9333C46.4569 50.1417 46.6387 50.3417 46.6387 50.55C47.3244 50.5333 47.9193 50.7667 48.415 51.2583L49.0428 51.2417C49.1585 50.9833 49.2824 50.8583 49.4064 50.85C49.4064 50.85 49.9186 50.95 50.026 50.8333C50.2738 50.5667 50.1334 50.1333 50.373 49.8083C50.4308 49.8083 51.29 47.3583 51.5131 46.9917C51.9758 46.225 53.0002 43.6583 53.3224 43.2667C53.8016 42.6833 54.6525 41.3417 55.4705 39.15C55.4952 39.0833 55.3796 38.9583 55.3383 38.9C55.3135 38.8667 55.2474 38.8 55.2061 38.775C54.9334 38.6083 54.4377 37.9583 53.9503 38.5583C52.1492 41.525 51.1413 43.0333 50.9348 43.075C50.9183 42.4 51.5709 41.2 51.7114 39.2583C51.7196 39.1583 51.8023 38.6083 51.8436 38.45C52.0749 37.5083 52.3641 37.35 52.5128 36.575C52.521 36.5167 52.4962 36.3833 52.5045 36.3167C52.6697 35.3083 53.9007 32.4833 53.9007 32.4833C53.9007 32.4833 54.1651 31.4583 54.2477 31.4583L55.173 28.6417C55.5531 27.1167 55.8835 26.8 55.9331 26.45C55.9414 26.375 55.9744 25.7833 55.9662 25.7083C55.9249 25.1667 56.6767 23.6917 56.6601 23.6667C56.6188 23.6083 56.7923 23.125 56.7675 23.0333C56.751 22.9667 56.7428 22.8 56.7593 22.7833C56.908 22.6167 56.7262 22.0833 56.6106 21.9C56.2801 21.3417 55.9496 21.225 55.8422 21.125Z" fill="black" />
    <path d="M60.9728 11.6C60.9067 11.575 60.8984 11.45 60.8406 11.35C60.791 11.2667 60.5184 11.4417 60.4688 11.3583C60.4275 11.3 60.601 10.9917 60.5762 10.975C60.4853 10.8917 59.8492 11.0167 59.8244 11C59.6509 10.8583 58.9486 11.15 58.9486 11.15C57.2137 11.9 56.3049 12.7917 56.2305 12.75C56.0653 12.65 55.9331 12.85 55.8588 12.8833C54.8178 13.35 54.1816 14.0583 53.8925 14.5833C53.8512 14.6583 53.8842 14.8333 53.7851 14.9667C53.6859 15.0917 53.8181 15.475 53.9255 15.5917C54.3304 16.05 54.5782 16.2167 54.7021 16.3333C54.7517 16.375 54.8921 16.3417 54.95 16.325C55.0161 16.3083 55.1235 16.175 55.1896 16.1917C55.2557 16.2083 55.2639 16.4083 55.3218 16.4417C55.4705 16.5083 55.7844 16.3333 55.9414 16.3C55.9992 16.2833 56.3297 16.4167 56.4453 16.5333C56.5114 16.6 56.7345 16.55 56.8254 16.525C57.949 16.2333 58.5438 15.8667 58.6843 15.7167C58.7999 15.5917 59.1634 15.3333 59.7913 14.675C60.3531 14.0833 60.5845 13.7417 60.7662 13.6333C61.2702 13.325 61.3032 12.9417 61.3776 12.8583C61.518 12.7167 61.6337 11.8333 60.9728 11.6Z" fill="black" />
    <path d="M79.9003 32.65C79.8177 32.65 79.6938 32.7 79.5285 32.7917C79.3798 32.8 79.2972 32.7167 79.2724 32.5417C79.5285 31.9417 79.9251 31.2167 80.4704 30.35C80.4704 30.2667 80.3878 30.225 80.2143 30.2334L80.206 29.975C80.7678 29.075 81.0487 28.6 81.0487 28.5584L80.9165 28.3084C81.0817 28.2 81.3544 27.6417 81.7427 26.6417H81.6188L82.0897 25.6167L81.8418 25.625L81.8336 25.25C82.1558 24.8167 82.3127 24.5584 82.3127 24.475H82.1888C82.164 23.65 82.2384 23.1834 82.4036 23.075V22.95L81.2718 22.9834C80.9413 23.1667 80.7843 23.2917 80.7843 23.3834C79.4625 24.8334 78.6115 25.875 78.2397 26.4917L77.8762 27.0084C77.4053 27.2917 75.249 31.4834 74.588 32.6584C73.861 33.525 73.0183 35.175 72.9688 35.2334C72.0434 36.2917 69.5814 40.2834 69.5814 40.2834C69.5814 40.2834 69.6641 35.7667 70.3498 34.175C70.6885 33.4 71.2255 26.8 72.1013 24.2584C72.9357 21.85 74.9598 16.95 74.9598 16.95C74.9598 16.95 75.1664 16.025 75.3646 15.675C75.7695 14.9584 77.8597 9.66671 77.8597 9.66671C79.2642 6.12504 80.5365 4.69171 80.4952 3.12504L80.363 2.87504C80.4621 2.87504 81.0404 1.20837 80.8174 1.21671C80.4373 0.383374 79.9251 -0.0249598 79.2807 -0.00829314C79.165 0.333374 79.0411 0.508374 78.9172 0.508374H78.7933L78.405 0.266707L78.1571 0.27504C78.1654 0.633374 77.6779 1.06671 76.6865 1.58337L76.4387 1.59171L76.1826 1.47504C76.1082 1.75004 75.943 1.92504 75.6951 2.00004C75.5134 2.00837 74.902 2.82504 73.8858 4.45837C73.4975 4.78337 73.1753 5.25837 72.9192 5.88337C72.3078 7.25004 72.06 8.82504 72.06 8.82504C71.6551 9.31671 67.6399 19.7084 67.6399 19.7084C66.8633 22.0334 66.4916 23.3084 66.4916 23.5417L63.9057 32.1C63.3521 33.4 63.3852 35.3 62.8729 37.825C62.9556 37.825 62.9969 37.8667 63.0051 37.95C62.592 38.2834 62.9803 39.1917 63.0217 40.7334L62.4929 41.8917C62.526 42.95 62.2451 44.175 62.7821 45.5584C63.0217 46.8417 62.8234 47.8167 63.3026 48.4584C64.0626 48.7917 64.4509 49.1167 64.4592 49.4334C64.5418 49.4334 64.5831 49.3834 64.5831 49.3C65.178 49.6 65.4836 49.8917 65.4919 50.1584L66.1115 49.7667L66.5081 50.3917C66.5907 50.3917 66.632 50.3417 66.632 50.2667L66.8881 50.3834L67.2682 50.375C67.2682 50.2917 67.3012 50.1667 67.3756 49.9917C67.7969 49.9834 68.2183 50.0917 68.6479 50.3334V50.2084C69.3832 49.65 69.7549 49.3084 69.7467 49.1584C70.0606 49.15 70.3498 48.975 70.6059 48.6334C70.6059 48.5417 70.5563 48.425 70.4737 48.2584C70.4737 48.125 70.5481 47.9584 70.7133 47.7417L70.9198 47.8584C70.9033 47.35 71.019 47.0917 71.2751 47.0917C71.9526 45.825 72.3904 45.1417 72.597 45.025C72.597 44.9334 72.5557 44.9 72.473 44.9C72.6631 44.3084 72.9027 44 73.2001 43.9917V43.8667L73.0679 43.6167L73.3157 43.6084C73.3157 43.525 73.2744 43.4834 73.1918 43.4834C73.2662 43 73.3736 42.7417 73.5471 42.7167L76.5213 39.0834L76.2652 38.9667C78.1984 36.2334 78.595 34.7417 78.5867 34.4667C78.9172 34.2 79.3551 33.6417 79.9168 32.7834L79.9003 32.65Z" fill="black" />
    <path d="M128 21C127.736 20.3917 127.595 20.0167 127.587 19.875C127.587 19.875 126.852 19.0083 126.934 19.0083L126.802 18.7583L126.43 18.7667C126.075 18.775 125.819 18.4833 125.654 17.9L125.15 18.1667C125.15 18.1667 124.695 18.2667 124.398 17.9333L124.026 18.0667L123.646 17.95C122.597 17.9833 121.713 18.975 120.969 20.9417C120.564 21.3583 120.044 22.1333 119.408 23.2667L119.044 23.7833C118.615 24.2417 117.896 25.2333 116.871 26.7583C116.748 26.7583 116.384 27.2333 115.781 28.1833L115.665 28.5667C114.781 29.65 114.228 30.8417 114.228 30.7583C113.261 32.075 111.807 33.975 111.815 34.25L111.675 33.6167L112.113 32.7667L112.385 32.3333C112.542 31.9917 113.005 30.6667 113.22 30.6667C113.22 30.6667 113.881 28.5583 113.914 28.5C114.029 28.3 114.376 27.9333 114.616 26.825C114.616 26.825 115.781 22.325 116.351 21.5833C116.467 21.4333 116.905 19.0917 116.896 18.9083C116.888 18.7417 116.805 18.55 116.756 18.275C116.541 16.975 115.913 16.175 115.698 16.4C115.64 16.4667 115.649 16.5667 115.574 16.5333C115.31 16.425 114.955 15.8667 114.674 15.8C114.517 15.7667 114.203 15.9583 114.046 15.9417C113.98 15.9333 113.864 15.825 113.798 15.825C113.724 15.825 113.616 15.9417 113.55 15.9583C113.369 16.0083 113.22 15.85 113.046 15.85C112.567 15.8417 111.766 16.5167 111.311 16.6583C111.254 16.675 111.121 16.6833 111.055 16.6667C110.948 16.6333 110.32 17.1333 110.196 17.325C109.676 18.1583 109.254 18.525 109.229 18.6167C109.188 18.7667 109.023 19.4417 109.006 19.5083C108.94 19.75 108.643 19.9833 108.535 20.5333C108.535 20.5333 108.065 21.9167 107.618 23.725C107.701 23.725 107.263 24.75 107.263 24.75C107.081 25.6667 106.817 26.6 106.47 27.5583C106.47 27.5583 106.338 28.1083 106.123 28.7167C105.735 30.6667 105.371 31.5083 105.33 31.65C104.685 33.8667 104.528 35.7083 104.446 35.9833C104.421 36.075 104.454 36.2667 104.454 36.3667C104.462 36.5583 104.438 36.7 104.479 37.125C104.504 37.4083 104.545 38.075 104.388 38.275C104.248 38.45 104.537 38.9333 104.537 39.15C104.537 39.3083 104.322 39.6667 104.429 39.7917C104.595 39.9833 104.578 39.9667 104.562 40.0417C104.537 40.1667 104.52 40.4333 104.578 40.55C104.611 40.6333 104.801 40.7167 104.834 40.7917C104.851 40.825 104.818 40.9 104.834 40.9167C105.016 41.0833 104.975 41.1917 104.966 41.2917C104.966 41.325 104.966 41.3917 104.966 41.4167C104.966 41.5583 105.231 41.7167 105.735 41.8917C105.735 41.8083 106.379 42.3417 106.379 42.2583C106.627 42.3333 106.71 42.4417 106.767 42.5C106.875 42.6167 107.42 42.525 107.387 42.6083C107.337 42.7333 107.668 42.9 107.775 42.975C107.833 43.0167 107.957 43.0833 108.031 43.1C108.114 43.1167 108.114 43.1583 108.164 43.2167C108.271 43.3417 108.792 43.325 108.792 43.325H108.915L109.172 43.3333C109.733 43.3167 110.097 42.8833 110.518 42.1583C111.402 40.6417 112.187 39.9333 112.08 39.8333C112.014 39.775 112.65 38.9417 112.807 38.8C113.476 38.2083 113.162 37.1 113.616 36.5C113.699 36.3917 113.914 36.225 113.988 36.1083C114.575 35.175 114.847 34.5167 114.814 34.4417C114.69 34.0583 115.219 33.8 115.426 33.6667C115.45 33.65 115.525 33.6833 115.55 33.6667C116.045 33.3083 115.996 32.7 116.268 32.5083C116.458 31.825 116.657 31.4833 116.863 31.475C117.161 31.0417 117.4 30.75 117.475 30.825C117.656 31 117.648 31.2 117.987 31.1917C117.103 35.3333 116.681 37.4583 116.665 37.5667C116.64 37.7083 116.458 37.9417 116.434 38.0833C116.392 38.2667 116.549 38.4167 116.574 38.5833C116.615 38.8833 116.227 39.7333 116.227 39.7333C116.078 40.4083 115.963 40.7583 115.88 40.7583C115.112 45.2583 115.393 44.4333 115.236 44.7167C115.236 44.8 114.17 47.025 114.17 47.025C114.096 47.4667 113.319 48.1917 113.319 48.1917L113.294 49.525C112.815 50.2167 111.972 51.5417 111.972 51.4583C111.642 51.8083 110.394 53.05 109.221 54.8667C109.105 55.0417 108.098 57.2167 107.759 58.4583C107.841 58.4583 107.09 59.1083 107.09 59.1083L106.982 59.7417L106.181 60.275L105.702 61.05C105.702 61.1333 105.462 61.4333 105.462 61.4333C105.479 62.1333 105.454 62.5167 105.363 62.5833C105.363 62.5833 104.355 63.7083 104.124 65.15L104.016 65.9083C103.876 66.15 103.768 66.7 103.686 67.5667C103.768 67.5667 103.636 67.9083 103.454 68.3333C103.264 68.3417 103.512 70.35 103.512 70.35C103.686 70.6833 104.809 71.7083 104.809 71.7083C104.809 71.7083 105.289 72.325 105.454 72.325L105.826 72.0667L105.908 72.1167L105.983 72.1583L106.098 72.5583C106.181 72.5583 106.23 72.6833 106.23 72.6833L106.602 72.675L106.85 72.5417L106.982 72.7917L107.61 73.025C107.701 73.025 107.825 72.975 107.982 72.8833L108.866 72.9917L109.114 72.7333C109.7 72.7167 110.155 72.6167 110.485 72.4417C110.485 72.3583 111.237 72.2917 111.237 72.2917C111.237 72.2917 111.609 71.9917 111.609 72.1583L111.857 72.025L112.237 72.0167C112.237 72.0167 112.782 71.1167 113.088 71.1083C113.79 70.6667 113.112 70.475 113.319 70.4667C113.319 70.3833 113.691 70.075 113.691 70.075C113.848 69.7583 114.096 69.5417 114.426 69.425C114.905 68.5667 114.525 68.2833 114.525 68.2833C114.748 68.2167 115.137 67.625 115.137 67.625L115.26 67.5C115.583 67.0083 115.74 66.6667 115.74 66.475L115.855 66.3417L116.095 65.9583C116.235 65.1917 116.524 64.8083 116.938 64.7917C116.929 64.6 117.367 63.6583 118.243 61.9667C118.243 61.9667 122.936 47.875 122.927 47.7917C122.993 47.0667 123.101 46.475 123.258 46.0083C123.258 46.0083 123.621 45.0083 123.539 44.8583L123.646 44.35C123.811 43.35 124.191 41.425 124.191 41.425C124.282 40.925 124.406 40.025 124.406 40.025C124.406 39.9417 124.447 39.9 124.53 39.9C124.695 39.0083 124.918 38.075 125.208 37.0917C125.125 37.0917 125.398 35.0583 125.398 35.0583V34.9333C125.819 32.2167 126.273 30.475 126.273 30.475L126.141 30.225C126.323 30.2167 126.488 29.325 126.488 29.325C126.728 28.7083 126.951 27.9833 127.182 27.15C127.182 27.15 127.554 24.225 127.942 22.95L127.917 22.1917C127.917 22.1083 127.983 21.4333 127.893 21.4333C127.884 21.3 127.926 21.175 128 21ZM115.558 19.15C115.855 19.1417 116.021 19.4917 116.037 20.2083L115.368 20.225L115.558 19.15ZM114.831 22.1L115.128 22.0917L115.145 22.6L114.847 22.6083L114.831 22.1ZM106.511 31.375L106.528 32.0417C106.272 32.05 106.115 31.825 106.065 31.3833L106.511 31.375ZM106.032 32.275L106.049 32.9333C105.834 32.9417 105.702 32.725 105.66 32.2833L106.032 32.275ZM105.396 38.0917L105.644 38.0833L105.669 38.8917L105.421 38.9L105.396 38.0917ZM105.693 40.6083L105.677 39.9917C106.239 39.975 106.528 40.175 106.536 40.5833L105.693 40.6083ZM107.024 40.1L106.751 40.1083C106.734 39.65 106.536 39.4167 106.164 39.4333L106.148 38.7333L106.429 38.725C106.445 39.1917 106.643 39.425 107.015 39.4083L107.024 40.1ZM107.618 41.325C107.627 41.6917 107.461 41.8833 107.139 41.8917L107.131 41.6167C107.123 41.3 107.28 41.125 107.61 41.0667L107.618 41.325ZM109.469 40.4167L109.486 41.1333C109.172 41.1417 108.998 40.9 108.94 40.4333L109.469 40.4167ZM109.998 42.2L109.056 42.225C109.048 41.8583 109.196 41.65 109.502 41.5917L109.981 41.575L109.998 42.2ZM111.336 33.1167L111.32 32.6667L111.477 31.7667L111.658 31.7583C111.551 32.3667 111.51 32.8083 111.518 33.1083L111.336 33.1167ZM104.446 70.6C103.991 70.425 103.818 70.1083 103.909 69.6583L104.685 69.9667L104.446 70.6ZM104.677 66.4667L104.801 66.1417C105.132 66.275 105.214 66.55 105.032 67.0083L104.9 67.3417C104.628 67.2333 104.545 66.9417 104.677 66.4667ZM105.222 68.8667L104.95 68.7583C105.024 68.5667 105.041 68.225 105.024 67.7583L105.454 68.2833L105.222 68.8667ZM105.198 65.5417L104.495 65.2583C104.677 64.8 105.008 64.65 105.503 64.7583L105.198 65.5417ZM117.144 44.9667L117.169 45.7167L116.632 45.7333C116.615 45.2917 116.789 45.0333 117.144 44.9667ZM115.227 46.6167L115.806 46.6C115.814 47.0333 115.632 47.25 115.244 47.2667L115.227 46.6167ZM114.633 47.9083C115.062 47.9 115.285 48.125 115.294 48.5917L114.649 48.6083L114.633 47.9083ZM113.542 50.0583L114.327 50.0333C114.335 50.4667 114.071 50.7 113.559 50.7083L113.542 50.0583ZM112.699 51.175L113.179 51.1583L113.212 52.2417L112.732 52.2583L112.699 51.175ZM110.394 54.125C110.386 53.7083 110.493 53.475 110.733 53.3917L110.741 53.7583C110.758 54.2417 110.642 54.475 110.403 54.4833L110.394 54.125ZM109.75 56.1L110.097 56.25C110.014 56.4333 110.006 56.775 110.064 57.2583L109.031 56.8C109.428 56.5167 109.667 56.2833 109.75 56.1ZM108.519 57.65L108.792 57.6417L109.337 57.875L109.345 58.125C108.982 57.9583 108.709 57.8917 108.527 57.9L108.519 57.65ZM107.172 60.1333L107.379 60.125L107.412 61.2333L106.982 61.2417C107.114 60.7583 107.181 60.3833 107.172 60.1333ZM105.925 62.7333L106.346 62.9L106.131 63.4583L105.71 63.2917L105.925 62.7333ZM105.793 71.1583L106.024 70.5583L106.453 70.725C106.305 71.125 106.073 71.2667 105.793 71.1583ZM107.114 72.3333C106.743 72.3417 106.511 71.9333 106.453 71.0167L107.081 71L107.114 72.3333ZM109.89 69.175L109.494 69.725L109.13 69.6L109.238 69.2917C109.477 69.375 109.667 69.2083 109.808 68.8L109.998 68.8667L109.89 69.175ZM111.518 70.5917L111.196 70.475L111.477 69.6667C111.584 69.35 111.749 69.2083 111.981 69.2583L111.518 70.5917ZM112.947 70.2917L112.675 70.1917C112.865 69.6417 112.922 69.2 112.848 68.8333L113.112 68.925L113.567 69.3583C113.269 69.6 113.071 69.9167 112.947 70.2917ZM113.187 61.2L112.865 61.0833L113.369 60.675L113.674 60.7833L113.187 61.2ZM118.375 52.8583C118.053 52.8667 117.855 52.6667 117.805 52.225L118.078 52.2167C118.441 52.2083 118.639 52.4167 118.648 52.85L118.375 52.8583ZM118.549 46.7167L117.987 47.825C117.747 49.0833 117.243 49.8167 117.243 49.8167C117.235 49.9833 116.219 52.55 116.219 52.55C116.219 52.55 115.822 53.5417 115.913 53.55C115.905 53.6333 115.599 54.7 115.062 55.4083L114.484 56.775C114.079 58.025 113.509 59.3417 113.583 59.5167C113.501 59.85 113.41 60.0167 113.311 60.0083C112.691 60.625 112.104 61.3333 112.104 61.3333C112.104 61.3333 111.518 62.8667 111.518 62.9583C110.882 64.1917 109.486 66.3917 109.568 66.4L108.337 68.2333C108.337 68.2333 107.519 69.35 106.478 70.0333L106.239 69.8917L106.346 67.8667L106.495 67.375C106.718 67.1083 106.834 65.7417 106.834 65.7417L107.594 63.2417C108.056 62.3833 108.321 61.3833 108.321 61.3833C108.593 61.1417 108.907 60.7 109.279 60.0417C109.287 59.9667 109.7 59.2167 109.849 58.8083C109.998 58.05 110.138 57.6833 110.287 57.6917C110.287 57.6917 110.551 57.4333 110.816 57.0833L111.088 56.85C111.105 56.6167 111.196 56.375 111.377 56.1083C111.377 56.1083 111.642 55.7417 111.658 55.4833C111.576 55.475 112.005 54.9083 112.493 54.0083L112.757 53.775L113.559 52.8083L114.261 51.4583C114.269 51.3083 114.55 50.7083 114.55 50.7083C114.55 50.7083 114.723 50.5083 114.814 50.3417L115.368 49.4917L116.045 48.5083C116.054 48.4083 116.285 47.9583 116.748 47.15C117.632 46.225 118.086 45.7 118.094 45.575C118.177 45.5833 118.466 45.6 118.466 45.6C118.458 45.7917 118.565 46.1167 118.565 46.1167L118.549 46.7167ZM119.218 25.7333C118.664 25.75 118.408 26.0917 118.433 26.775L118.16 26.7833L118.152 26.45C118.565 25.5333 118.929 25.0667 119.201 25.0583L119.218 25.7333ZM122.357 19.5333L123.01 19.5167C123.035 20.325 122.82 20.7333 122.39 20.75L122.357 19.5333ZM123.241 41.4L122.952 41.3417L123.357 39.4417L123.646 39.5L123.241 41.4ZM124.836 20.2667L124.547 20.275L124.505 18.775L124.794 18.7667L124.836 20.2667Z" fill="black" />
    <path d="M41.4586 13.9833C41.0125 13.675 40.8803 13.3833 40.4837 13.0667C40.3515 12.9583 38.567 11.9917 38.4761 11.9C37.7078 11.125 36.2868 11.825 35.535 11.1333C35.2541 10.8833 35.5597 10.8833 35.3532 10.6667C34.8245 10.1333 34.2957 10.55 33.6348 10.525C32.759 10.4917 30.2475 10.7417 30.0327 10.625C28.9752 10.0917 25.8109 10.9 25.3317 11.2333C23.8694 12.2417 22.8863 12.2083 21.2339 12.2C19.1355 13.3417 16.9213 14.3667 14.8889 15.5833C14.8724 15.725 14.9303 15.9333 14.8146 15.9667C13.5423 16.3333 12.427 16.85 11.8652 17.9333C11.6504 18.3333 11.5677 18.1583 11.2621 18.4333C10.8985 18.7667 10.9646 18.8917 10.5102 19.1167C9.79147 19.4667 9.43622 20.2083 8.92399 20.8583C8.80006 21.0167 7.12294 23.1167 6.69333 23.9417C6.60245 24.1083 6.45374 24.4417 6.36286 24.5167C5.59452 25.175 5.34667 27.625 5.25579 28.0333C5.20622 28.275 5.00794 29.7833 4.71878 30.3083C4.64442 30.4417 4.7353 30.8917 4.57007 31.1583C4.12394 31.9083 4.04958 33.3333 4.05784 34.2833C4.05784 35.3333 3.70259 37.2667 4.58659 37.85C4.76835 37.9667 4.8427 39.1 5.05751 39.3417C5.23927 39.55 5.48712 39.5833 5.58626 39.8C5.95804 40.6083 6.27198 41.5833 6.41243 41.6583C6.76768 41.85 7.78387 43.425 7.84171 43.5C8.2961 44.125 8.75049 44.35 9.59319 44.7667C10.2128 45.075 10.8077 45.35 11.2621 45.9417C11.3199 46.0167 11.7908 46.5 11.8817 46.5833C12.3196 46.9917 12.997 46.55 13.4349 46.9167C13.7984 47.2167 13.9636 47.475 14.0545 47.5583C14.732 48.2333 15.492 48.1417 16.31 48.3417C16.5495 48.4 16.8304 48.475 16.9957 48.325C17.2105 48.125 17.574 48.525 18.1193 48.7583C18.4332 48.8917 18.7059 48.5917 19.0694 48.925C19.4081 49.2333 19.9451 49.125 20.2756 49.075C20.9613 48.975 21.0191 48.8917 21.6388 48.85C22.1262 48.8167 23.0928 48.6917 23.5307 48.7917C23.8281 48.8667 24.6873 48.9917 24.7452 49.0417C25.2161 49.4083 26.2653 49.0083 27.1411 48.975C28.0416 48.9417 28.8678 48.0833 29.4461 48.4333C29.7187 48.6 29.7187 48.7417 29.9748 48.8917C30.3549 49.1167 31.0654 49.0583 31.5198 48.75C31.7346 48.6083 35.8985 48.4417 35.8985 48.4417L36.3529 46.7333C36.3529 46.7333 37.5508 44.225 37.6252 43.2083C37.6417 42.9917 37.6582 41.7 38.1622 41.1167C38.8231 40.3667 38.9305 34.0417 38.9057 33.9333C38.7075 32.8417 38.2448 31.7583 38.0713 31.5083C37.8482 31.1833 37.2534 31.25 37.4186 31.0083C37.4269 30.9917 37.2203 30.9083 36.8486 30.6917C36.3198 30.4 35.6341 30.1917 35.1054 29.8917C33.9652 29.25 31.9824 29.6833 31.9824 29.6833C31.9824 29.6833 31.5528 31.8 31.4785 31.8833C30.3879 33.0417 30.9993 40.7333 29.7931 42.2C29.6857 42.3333 29.727 42.925 29.6444 43.0583C28.9752 44.075 27.6946 44.5417 26.2323 43.8167C25.9183 43.6583 25.9762 44.2333 25.8027 44.0167C25.6457 43.825 25.3317 43.4667 25.183 43.375C24.489 42.925 24.0677 42.725 23.4233 42.0083C22.8945 41.4167 22.6219 40.625 21.837 40.5417C21.7049 40.525 20.9861 39.7333 20.953 39.625C20.5069 38.1667 20.3169 36.6917 18.8628 35.725C18.3341 35.375 18.2515 35.175 18.1523 34.8C18.0036 34.2417 18.4084 33.0417 17.8219 32.3583C17.6401 32.1417 17.2435 32.175 17.2931 31.9C17.4005 31.4 17.4996 30.875 17.5988 30.7583C18.7637 29.45 17.1857 27.3 17.4666 25.9583C17.5657 25.475 17.9706 24.95 18.0284 24.4333C18.0862 23.9083 17.8219 23.875 17.8301 23.4917C17.8384 23.1083 18.0119 23.0583 18.491 22.625C18.995 22.1667 18.805 21.7333 19.0611 21.3833C19.2511 21.125 19.3833 20.2917 19.4577 20.2417C20.4326 19.5083 20.7217 18.4667 21.4487 17.6333C22.0353 16.9667 22.8945 16.4583 23.7207 16.1583C23.8529 16.1083 26.3149 16.1167 26.8106 15.975C27.3063 15.8333 28.339 15.85 28.7025 16.0167C29.1487 16.225 29.3965 16.4833 29.2395 16.85C28.9999 17.4083 28.1159 17.4917 27.9838 18.1083C27.8598 18.725 27.8516 19.3917 28.0333 20C28.9339 22.9667 34.4857 25.475 37.5591 22.7417C37.7987 22.525 40.2441 22.1417 41.0373 21.1333C41.5082 20.5333 41.186 20.1333 41.8469 19.4083C42.0121 19.225 42.0782 18.4083 42.3261 18.1667C42.417 18.0833 42.5574 18.05 42.5739 17.975C42.9788 16.325 42.3096 14.5667 41.4586 13.9833ZM7.37905 27.6583C7.40383 27.6167 7.51124 27.6417 7.55255 27.65C7.64342 27.6667 7.89954 27.8083 7.89954 27.8083C7.78387 28.625 7.54428 29.1917 7.4121 29.0417C7.27165 28.875 7.54428 28.3917 7.56081 28.1667C7.57733 28.05 7.25512 27.8833 7.37905 27.6583ZM6.28024 31.9417C6.44548 31.9 6.43721 32.375 6.33807 32.6333C6.33807 32.6333 6.14805 32.45 6.13979 32.325C6.12327 32.2083 6.22241 31.95 6.28024 31.9417ZM6.37112 34.3583L5.88368 33.9917L6.13153 33.6667L6.61897 34.0417L6.37112 34.3583ZM6.90813 35.2917L6.5694 35.1167L7.09815 34.6667L7.42862 34.8333L6.90813 35.2917ZM7.68473 31.1167L7.11467 31.6167C6.97423 31.5167 6.9577 31.375 7.05684 31.2L7.50297 30.6L7.26339 30.425L7.44514 30.1833C7.79214 30.5417 7.89954 30.8167 7.76735 30.9917L7.68473 31.1167ZM8.06477 36.0667C7.89128 35.875 7.85823 35.6083 7.98215 35.2917L8.28784 35.625L8.06477 36.0667ZM9.18836 37.0833L8.577 36.8333L9.05618 36.475C9.46926 36.65 9.50231 36.85 9.18836 37.0833ZM10.2624 23.2583C10.1302 23.6083 9.87409 23.7667 9.78321 24.1583C9.73364 24.3667 9.46926 24.725 9.42795 24.9333C9.41143 24.9917 9.46926 25.1333 9.43622 25.1833C9.32055 25.35 8.86616 25.9 8.83311 25.9583C8.81659 25.9833 8.73397 25.95 8.70918 25.9583C8.5109 26.075 8.27131 26.5083 8.23001 26.7333C8.19696 26.9167 8.36219 27.0667 8.37045 27.2333C8.37872 27.4167 8.32088 27.5667 8.25479 27.6167C8.14739 27.7 7.82518 27.4917 7.75083 27.375C7.56907 27.0917 8.53569 25.15 8.56047 25.0667C8.72571 24.5333 9.76668 23.4417 9.89061 23.2583C9.94018 23.1917 9.79973 23.0667 9.75016 22.8833C9.7419 22.85 9.71711 22.775 9.75016 22.7583C9.97323 22.5917 10.3533 23.0167 10.2624 23.2583ZM12.7161 21.3083L12.1378 21.325C12.1295 21.0583 11.923 20.6833 11.5264 20.1667L12.6996 20.525L12.7161 21.3083ZM13.3357 23C13.2779 23.05 13.1622 23.0167 13.1375 22.9417C13.0962 22.7917 13.2696 22.2583 13.3771 22.1167C13.4266 22.0417 13.5588 22.0917 13.5753 22.175C13.6001 22.3417 13.4514 22.8917 13.3357 23ZM15.2772 19.7417C15.2855 20.05 15.0872 20.2083 14.6989 20.225L14.6907 19.9917C14.7154 19.6833 14.9137 19.5167 15.269 19.5083L15.2772 19.7417ZM35.4936 42.7417L35.8159 43.1583L35.5597 43.6667C35.3697 43.4167 35.3532 43.1167 35.4936 42.7417ZM34.0726 43.9833L34.5518 44.9083L34.3866 45.475L33.8991 44.5417L34.0726 43.9833ZM32.5277 41.125L33.5191 41.5417L33.2465 41.725L32.2468 41.3083L32.5277 41.125ZM29.8922 46.3417L29.6774 46.175L30.0079 45.7667L30.2144 45.925L29.8922 46.3417ZM30.7019 46.4167L30.9662 46.5833C31.2637 46.8417 31.3132 47.1 31.0654 47.3417L30.8588 47.5583L30.3466 47.225C30.4788 47.075 30.6027 46.8083 30.7019 46.4167ZM29.9005 45.05L30.2805 45.2083L29.6774 45.6417L29.2891 45.4833L29.9005 45.05ZM28.7686 46.6917C29.1569 46.9167 29.1982 47.1833 28.8843 47.4833L28.2977 47.1417L28.7686 46.6917ZM27.7855 45.725L27.9342 45.925L27.5872 46.6667L27.4385 46.4667L27.7855 45.725Z" fill="black" />
    <path d="M101.397 19.7167C101.356 19.375 101.323 19.0333 101.265 18.6917C101.125 17.9 101.315 16.9167 100.48 16.0917C100.323 15.9333 99.9928 15.975 99.8441 15.7917C99.6954 15.6083 99.745 15.3167 99.5632 15.0167C99.3897 14.7333 99.084 14.3667 98.5553 14.05C98.2744 13.8833 98.4148 13.9417 98.1422 13.8167C97.9522 13.725 97.7787 13.675 97.6134 13.625C96.9112 13.4167 96.1759 13.0333 95.3167 13.075C95.168 13.0833 94.8705 13.2333 94.7466 13.2167C93.6726 13.0417 92.6564 13.8833 91.9624 14.4833C91.2602 15.0917 90.7893 15.75 90.4257 16.3667C89.6987 17.6083 89.6078 18.9417 88.8065 19.7083C88.5669 19.9333 88.3355 20.3333 88.2116 20.6083C87.8729 21.375 88.2199 22.2 88.2694 22.725C88.2777 22.8083 88.2364 23.025 88.2116 23.0417C87.8977 23.4083 88.4512 24.225 88.0299 24.3917C88.0216 24.4 87.9968 24.3583 87.9885 24.3667C87.3689 25.7417 88.0299 25.6333 88.129 26.2583C88.2447 26.9667 88.4016 27.525 88.5586 28.0833C88.8725 29.1917 89.3352 30.2333 89.2113 31.3917C89.0791 32.6083 89.8557 33.4 89.9714 34.8333C89.9879 35.0417 90.2027 35.5583 90.3183 36.2667C90.3349 36.3833 90.5001 36.725 90.5579 36.8833C90.6488 37.125 90.3927 37.7167 90.7397 38.7417C90.7727 38.8333 90.434 39.9333 90.6488 40.7417C90.6819 40.8583 90.5166 41.2083 90.3597 41.4333C89.8392 42.2167 89.6078 42.8667 89.6739 42.9417C89.9796 43.2917 89.2608 43.4417 89.0873 43.6667C89.0708 43.6917 88.9882 43.7583 88.9717 43.7917C88.6164 44.3833 88.5256 44.675 88.1703 44.875C88.0298 44.95 87.8977 45.3167 87.8564 45.4583C87.8233 45.5833 87.6002 45.7667 87.4846 45.825C87.3028 45.9083 87.1541 46.1333 87.1211 46.1917C86.7741 46.85 86.4436 47.0333 86.3197 47.2667C85.7909 48.2417 85.4026 48.1667 85.0061 48.175C84.973 48.175 84.8987 48.1917 84.8574 48.1917C84.6756 48.1917 84.2625 48.0833 84.1634 47.925C84.0147 47.6833 84.0477 47.3333 84.0642 46.9333C84.089 46.1167 84.5351 45.4083 84.8739 44.7333C84.8904 44.7 84.9234 44.6333 84.9317 44.5917C84.9482 44.4833 84.9895 44.3667 85.0556 44.2833C85.0722 44.2667 85.0887 44.2167 85.0969 44.1917C85.1465 44.05 85.2539 43.9917 85.3117 43.9333C86.1214 43.1167 86.3445 42.4667 86.3032 42.2917C86.2949 42.2583 86.2701 42.1917 86.2701 42.1583C86.2618 41.9833 87.3689 40.05 87.8233 39.4C88.5999 38.3 88.9386 37.45 88.823 36.6417C88.8147 36.6083 88.8147 36.525 88.7899 36.5083C88.7321 36.475 88.5834 36.5333 88.5256 36.575C88.4264 36.65 88.3108 36.9667 88.1951 36.9333C87.939 36.8667 87.972 36.5667 87.7076 36.6333C87.6168 36.6583 87.1376 36.65 87.055 36.7917C86.9145 37.025 86.5758 37.2917 86.361 37.375C86.2701 37.4167 86.0388 37.4 85.9727 37.475C85.8488 37.6083 85.9892 38.0667 85.8653 38.2C85.7496 38.325 85.2952 38.2167 85.2126 38.3583C85.1217 38.5167 84.8987 39.2583 84.6508 39.475C84.6508 39.475 84.4443 39.6 84.4195 39.675C84.3616 39.85 84.3038 40.1333 83.9238 40.4917C83.8742 40.5333 83.8494 40.6 83.7916 40.6167C83.709 40.65 83.5272 40.5333 83.4529 40.575C83.2711 40.6833 83.1141 41.35 83.1141 41.35C83.1224 41.4167 83.1472 41.4917 83.172 41.55C83.0646 41.725 83.0067 41.8583 82.9985 41.9417L82.7506 42.175L82.6267 42.45L82.4449 42.3833C82.4449 42.3833 82.1062 42.8333 82.0649 42.925C81.6766 43.7417 81.1065 44.7333 80.8504 45.3667C80.7678 45.5583 80.5943 45.8083 80.586 46.1667C80.586 46.2417 80.2886 46.75 80.3052 46.8583C80.3299 47.025 80.2969 47.3583 80.3217 47.5167C80.363 47.8083 80.1399 48.1 80.2473 48.25C80.4786 48.6083 80.8917 48.425 80.8835 48.6083C80.8835 48.7083 80.8009 48.9167 80.8422 49C80.9578 49.225 81.5361 49.475 81.5361 49.475C81.5361 49.475 82.0153 49.55 82.668 49.7C82.668 49.7 83.1968 49.6917 83.2794 49.8583C83.3042 49.9167 83.1554 50.0333 83.1885 50.0833C83.5603 50.8417 84.6921 50.4917 84.6921 50.4917L84.8491 50.475C85.3531 50.35 85.6505 50.2833 85.7248 50.275C85.824 50.2667 85.8983 50.3333 85.9314 50.475C86.1379 50.45 86.4684 50.35 86.9393 50.15C86.9393 50.15 87.4185 50.35 87.6581 50.5167C87.7159 50.5583 87.9142 50.55 87.9555 50.4917C88.0546 50.3583 87.8729 50.125 87.9968 50.0417C88.2694 49.8583 88.6743 50.2417 89.1452 50.2583C89.5417 50.2667 89.3765 49.8417 89.5748 49.55C89.6326 49.4667 89.6987 49.6083 89.7566 49.6417C90.8554 50.3583 91.4419 49.1833 91.6154 49.0083C91.7311 48.8833 92.1607 49.2833 92.2764 49.1667C92.3425 49.1 92.4251 48.8333 92.8877 48.55C92.9538 48.5083 93.086 48.45 93.1604 48.4167C93.2347 48.3833 93.4165 48.35 93.4413 48.275C93.4826 48.1333 93.0695 47.8917 93.1439 47.7583C93.1769 47.6917 93.4082 47.7917 93.4578 47.725C93.5321 47.6167 93.2099 47.2667 93.3421 47.2917C93.6065 47.35 93.6561 47.5917 93.7635 47.6917C93.813 47.7417 93.8957 47.8917 93.97 47.8917C94.3748 47.8917 95.0193 47.6833 95.3167 47.0917C95.3249 47.0667 95.3002 47.0083 95.2919 46.9833C95.2506 46.9083 95.0523 46.6583 95.201 46.6667C95.2836 46.675 95.4571 46.7833 95.5315 46.7417C95.7463 46.625 95.7876 46.475 95.9033 46.3667C95.9694 46.3083 95.928 46.1083 95.9694 46.025C96.0437 45.85 96.3907 45.6167 96.432 45.425C96.4485 45.35 97.1838 44.35 98.0513 42.7167C98.1752 41.8167 98.3157 41.175 98.4727 40.7917C98.4727 40.7917 98.5801 40.6 98.5387 40.45L98.4809 40.2333C98.4809 40.2333 98.7866 39.6167 98.5387 38.6833C98.4313 38.6917 98.3074 38.5917 98.1504 38.3917C98.5553 38.35 98.7288 38.225 98.6709 38.0083L98.6131 37.7917C98.5801 37.6667 98.5553 37.575 98.5553 37.575C98.5553 37.575 98.5387 36.925 98.4479 36.5917L98.3074 36.05C98.3074 36.05 98.1422 35.7 97.9852 35.4167C98.0844 35.4083 98.1257 35.3667 98.1091 35.2917L97.9356 34.6417C97.9356 34.6417 98.043 34.5333 98.1339 34.5C98.1174 34.2667 98.2165 34.2417 97.8861 33.8333C97.663 33.55 97.3325 32.3833 97.3078 32.275C97.2912 32.225 97.2747 32.1167 97.2582 32.0583C97.2003 31.9167 95.548 28.7917 95.5315 28.725C95.5315 28.725 94.8458 29.075 94.6475 28.9667C94.6227 28.95 94.317 28.8333 94.5318 28.575C94.7053 28.3667 94.5814 28.2917 94.5897 28.1917C94.5979 27.8167 94.1683 27.975 94.2427 27.6417C94.2922 27.4 94.8623 27.1833 95.0275 27.1167C95.2836 27.0083 93.8957 27.025 93.8709 26.9833L93.7717 27.05C93.5569 26.95 93.4743 26.8417 93.59 26.6333C93.6148 26.5917 93.6396 26.5083 93.6478 26.4583C93.6643 26.4 93.7222 26.2917 93.7139 26.2333C93.7056 26.175 93.7552 25.975 93.8048 25.9083C94.1022 25.55 93.8544 25.3083 93.5817 25.1C93.5569 25.0833 93.4495 25.125 93.5569 24.975C93.5982 24.925 93.6643 24.825 93.6974 24.7667C93.7222 24.725 93.7552 24.65 93.7883 24.6083C93.9122 24.425 94.1518 24.5167 94.2096 24.4167C94.3418 24.2083 93.9205 23.5833 93.8544 23.5083C93.8213 23.45 93.7304 23.1333 93.8213 23.0917L94.0279 22.9333L94.1848 22.4667C94.1848 22.4667 94.1766 21.4167 94.5566 21.1417C95.1019 21.1667 95.0027 19.9 95.0358 19.5167C95.3993 19.6333 95.6802 19.975 95.5728 20.3917C95.5728 20.3917 95.8785 20.7667 95.6306 20.8917C95.3745 21.0083 96.0107 21.2083 96.0189 21.2667C96.2833 21.4417 96.3494 21.8583 96.085 22.05C95.5811 22.0333 96.4651 22.75 95.895 22.6333C95.895 22.6333 96.0768 23.2417 95.6389 23.3833C95.6389 23.3833 96.3824 24.2583 96.8947 24.6333C97.4152 25.0167 98.0926 25.0917 98.7122 25.2917C99.3071 25.2667 99.9019 25.175 100.497 25.05C100.679 24.1917 100.563 23.3667 100.736 22.625C100.885 22 101.273 21.4667 101.488 20.8583C101.48 20.4833 101.472 20.1 101.422 19.725C101.406 19.7833 101.397 19.7417 101.397 19.7167ZM89.5004 22.45L88.9469 22.4667C88.9221 21.5667 89.0873 21.0333 89.4509 20.8917L89.5004 22.45ZM89.6326 20.1583L89.3682 20.1667L89.3517 19.65L89.6161 19.6417L89.6326 20.1583ZM90.1944 23.075L89.9218 23.0833L89.897 22.175L90.1696 22.1667L90.1944 23.075ZM87.1789 38.1917L87.4763 38.1833L87.4928 38.7583L87.1954 38.7667L87.1789 38.1917ZM85.5596 39.3583L85.7331 39.35L85.7496 39.9583L85.5761 39.9667L85.5596 39.3583ZM85.3613 40.6L85.3778 41.2167L85.1796 41.225C85.1713 41.0167 85.0969 40.7 84.9565 40.2917L85.3613 40.6ZM81.3379 47.925L81.4948 47.0917C81.4948 46.9833 81.4287 46.825 81.3048 46.6L81.4866 46.5917L81.8418 46.7417C81.7096 47.5333 81.5361 47.925 81.3379 47.925ZM81.8253 46.3417C81.817 46.0083 82.131 45.275 82.7671 44.1583C82.6845 44.1583 82.6432 44.125 82.635 44.0333L82.8911 44.025C83.4033 42.8917 83.7668 42.2917 83.9651 42.225C83.9651 42.1417 83.9155 42.0167 83.8329 41.8417V41.7167C84.1055 41.7917 84.279 41.9583 84.3451 42.2083C84.0394 42.4083 83.8825 42.7083 83.8742 43.1083L83.6181 42.9833L83.519 43.875L83.5272 44.125L82.7837 44.4L82.7919 44.6583L82.9241 44.9H82.8002L82.321 45.675C82.3293 45.8667 82.3788 46.0333 82.4615 46.175C82.3871 46.35 82.3458 46.475 82.3458 46.5583L81.8253 46.3417ZM83.0398 47.8667L82.4862 47.8833C82.478 47.5417 82.6597 47.3333 83.0315 47.275L83.0398 47.8667ZM83.1554 48.5333L83.1141 48.3583L83.9981 48.275L84.056 48.45L83.1554 48.5333ZM84.1634 49.5083C83.899 49.5167 83.7503 49.3583 83.709 49.0417L84.1551 49.025L84.1634 49.5083ZM85.4274 49.375L85.4109 48.8417C85.7083 48.8333 85.857 49.0083 85.8653 49.3667L85.4274 49.375ZM86.9971 49.8583L86.551 49.875C86.6915 49.525 86.7493 49.2417 86.7493 49.0667L86.9806 49.0583L86.9971 49.8583ZM89.3765 48.475L89.36 48.0167C89.7483 48.0083 89.9383 48.15 89.9466 48.4583L89.3765 48.475ZM91.1363 48.35L90.6571 48.3667C90.6488 48.175 90.5579 47.9 90.3927 47.5333L90.6323 47.525C90.9545 47.5583 91.1197 47.7417 91.128 48.0667L91.1363 48.35ZM93.6561 45.7C93.3256 45.7083 93.1356 45.5417 93.086 45.1667L93.6396 45.15L93.6561 45.7ZM96.7129 41.975C96.7212 42.3083 96.4898 42.65 96.0272 42.9917C96.1842 42.325 96.3494 41.9917 96.5312 41.9833L96.7129 41.975ZM96.3907 40.85L96.1676 40.8583L96.1511 40.4083L96.3742 40.4L96.3907 40.85ZM95.6967 39.5417L96.1346 39.525C96.1428 39.8167 95.9941 39.9667 95.705 39.975L95.6967 39.5417ZM95.3084 41.3083H95.4241L95.4406 41.875L95.0854 41.8833C95.0936 41.5083 95.168 41.3167 95.3084 41.3083ZM94.8127 42.525L94.8292 43.0167L94.3087 43.0333C94.3005 42.75 94.4657 42.575 94.8127 42.525ZM94.8458 43.7667L94.8623 44.275C94.6971 44.2833 94.4244 44.3667 94.0857 44.5417C94.3335 44.0333 94.5896 43.775 94.8458 43.7667ZM98.8362 24.8667L98.5305 24.35L98.7783 24.075L99.084 24.5917L98.8362 24.8667ZM99.6954 24.225L99.5715 24.3667C99.4723 24.1833 99.5384 23.8333 99.7615 23.2917C99.8524 23.7833 99.8276 24.0917 99.6954 24.225ZM99.9928 23.0417L99.7284 22.7C99.8441 22.6083 99.968 22.4083 100.108 22.1167C100.208 22.5917 100.175 22.9083 99.9928 23.0417ZM99.745 21.875L99.5632 21.625L100.009 21.2417L100.191 21.4917L99.745 21.875ZM99.8358 20.9917L99.4888 20.5083C99.745 20.275 100.009 20.3167 100.282 20.6083L99.8358 20.9917ZM100.381 19.825L100.092 19.4333L100.472 19.125L100.761 19.5167L100.381 19.825Z" fill="black" />
  </g>
  <defs>
    <filter id="filter0_d_303_295" x="0" y="0" width="132" height="81" filterUnits="userSpaceOnUse" color-interpolation-filters="sRGB">
      <feFlood flood-opacity="0" result="BackgroundImageFix" />
      <feColorMatrix in="SourceAlpha" type="matrix" values="0 0 0 0 0 0 0 0 0 0 0 0 0 0 0 0 0 0 127 0" result="hardAlpha" />
      <feOffset dy="4" />
      <feGaussianBlur stdDeviation="2" />
      <feComposite in2="hardAlpha" operator="out" />
      <feColorMatrix type="matrix" values="0 0 0 0 0 0 0 0 0 0 0 0 0 0 0 0 0 0 0.25 0" />
      <feBlend mode="normal" in2="BackgroundImageFix" result="effect1_dropShadow_303_295" />
      <feBlend mode="normal" in="SourceGraphic" in2="effect1_dropShadow_303_295" result="shape" />
    </filter>
    <clipPath id="clip0_303_295">
      <rect width="124" height="73" fill="white" transform="translate(4)" />
    </clipPath>
  </defs>
</svg>